<?xml version="1.0" encoding="UTF-8"?>
<!DOCTYPE svg  PUBLIC '-//W3C//DTD SVG 1.1//EN'  'http://www.w3.org/Graphics/SVG/1.1/DTD/svg11.dtd'>
<svg width="124.46mm" height="55.88mm" version="1.1" viewBox="0 0 124.46 55.88" xmlns="http://www.w3.org/2000/svg">
 <g fill-opacity="0" stroke="#000" stroke-linecap="round" stroke-linejoin="round" stroke-width=".1524">
  <g fill-opacity="0" stroke="#000" stroke-linecap="round" stroke-linejoin="round" stroke-width=".254">
   <rect x="109.47" y="13.97" width="2.032" height="5.08" rx="0"/>
  </g>
  <g fill-opacity="0" stroke="#000" stroke-linecap="round" stroke-linejoin="round" stroke-width=".1524">
   <path d="m110.49 13.97v-1.27"/>
   <path d="m110.49 19.05v1.27"/>
   <text x="113.5792" y="15.9766" font-size="1.6933" opacity="0" text-anchor="middle" lengthAdjust="spacingAndGlyphs" textLength="2.6065">R7</text>
   <g class="stroked-text">
    <path d="m113.37 15.808-0.4233-0.6048"/>
    <path d="m112.64 15.808v-1.27"/>
    <path d="m112.64 14.538h0.4838"/>
    <path d="m113.13 14.538 0.121 0.0605"/>
    <path d="m113.25 14.599 0.0605 0.0604"/>
    <path d="m113.31 14.659 0.0604 0.121"/>
    <path d="m113.37 14.78v0.1814"/>
    <path d="m113.37 14.962-0.0604 0.121"/>
    <path d="m113.31 15.082-0.0605 0.0604"/>
    <path d="m113.25 15.143-0.121 0.0605"/>
    <path d="m113.13 15.203h-0.4838"/>
    <path d="m113.79 14.538h0.8466"/>
    <path d="m114.64 14.538-0.5442 1.27"/>
   </g>
   <text x="114.7887" y="18.2880" font-size="1.6933" opacity="0" text-anchor="middle" lengthAdjust="spacingAndGlyphs" textLength="5.0255">220R</text>
   <g class="stroked-text">
    <path d="m112.58 16.97 0.0604-0.0604"/>
    <path d="m112.64 16.91 0.121-0.0605"/>
    <path d="m112.76 16.85h0.3024"/>
    <path d="m113.07 16.85 0.1209 0.0605"/>
    <path d="m113.19 16.91 0.0605 0.0604"/>
    <path d="m113.25 16.97 0.0605 0.121"/>
    <path d="m113.31 17.092v0.1209"/>
    <path d="m113.31 17.212-0.0605 0.1815"/>
    <path d="m113.25 17.394-0.7257 0.7257"/>
    <path d="m112.52 18.12h0.7862"/>
    <path d="m113.79 16.97 0.0604-0.0604"/>
    <path d="m113.85 16.91 0.121-0.0605"/>
    <path d="m113.97 16.85h0.3024"/>
    <path d="m114.27 16.85 0.1209 0.0605"/>
    <path d="m114.4 16.91 0.0605 0.0604"/>
    <path d="m114.46 16.97 0.0605 0.121"/>
    <path d="m114.52 17.092v0.1209"/>
    <path d="m114.52 17.212-0.0605 0.1815"/>
    <path d="m114.46 17.394-0.7257 0.7257"/>
    <path d="m113.73 18.12h0.7862"/>
    <path d="m115.3 16.85h0.121"/>
    <path d="m115.42 16.85 0.1209 0.0605"/>
    <path d="m115.54 16.91 0.0605 0.0604"/>
    <path d="m115.61 16.97 0.0605 0.121"/>
    <path d="m115.67 17.092 0.0605 0.2419"/>
    <path d="m115.73 17.333v0.3024"/>
    <path d="m115.73 17.636-0.0605 0.2419"/>
    <path d="m115.67 17.878-0.0605 0.1209"/>
    <path d="m115.61 17.999-0.0605 0.0605"/>
    <path d="m115.54 18.059-0.1209 0.0605"/>
    <path d="m115.42 18.12h-0.121"/>
    <path d="m115.3 18.12-0.1209-0.0605"/>
    <path d="m115.18 18.059-0.0605-0.0605"/>
    <path d="m115.12 17.999-0.0605-0.1209"/>
    <path d="m115.06 17.878-0.0604-0.2419"/>
    <path d="m115 17.636v-0.3024"/>
    <path d="m115 17.333 0.0604-0.2419"/>
    <path d="m115.06 17.092 0.0605-0.121"/>
    <path d="m115.12 16.97 0.0605-0.0604"/>
    <path d="m115.18 16.91 0.1209-0.0605"/>
    <path d="m117 18.12-0.4233-0.6048"/>
    <path d="m116.27 18.12v-1.27"/>
    <path d="m116.27 16.85h0.4838"/>
    <path d="m116.75 16.85 0.121 0.0605"/>
    <path d="m116.88 16.91 0.0605 0.0604"/>
    <path d="m116.94 16.97 0.0604 0.121"/>
    <path d="m117 17.092v0.1814"/>
    <path d="m117 17.273-0.0604 0.121"/>
    <path d="m116.94 17.394-0.0605 0.0604"/>
    <path d="m116.88 17.454-0.121 0.0605"/>
    <path d="m116.75 17.515h-0.4838"/>
   </g>
  </g>
  <g fill-opacity="0" stroke="#000" stroke-linecap="round" stroke-linejoin="round" stroke-width=".254">
   <rect x="12.954" y="13.97" width="2.032" height="5.08" rx="0"/>
  </g>
  <g fill-opacity="0" stroke="#000" stroke-linecap="round" stroke-linejoin="round" stroke-width=".1524">
   <path d="m13.97 13.97v-1.27"/>
   <path d="m13.97 19.05v1.27"/>
   <text x="17.0592" y="15.9766" font-size="1.6933" opacity="0" text-anchor="middle" lengthAdjust="spacingAndGlyphs" textLength="2.6065">R1</text>
   <g class="stroked-text">
    <path d="m16.848 15.808-0.4233-0.6048"/>
    <path d="m16.122 15.808v-1.27"/>
    <path d="m16.122 14.538h0.4838"/>
    <path d="m16.606 14.538 0.121 0.0605"/>
    <path d="m16.727 14.599 0.0605 0.0604"/>
    <path d="m16.787 14.659 0.0604 0.121"/>
    <path d="m16.848 14.78v0.1814"/>
    <path d="m16.848 14.962-0.0604 0.121"/>
    <path d="m16.787 15.082-0.0605 0.0604"/>
    <path d="m16.727 15.143-0.121 0.0605"/>
    <path d="m16.606 15.203h-0.4838"/>
    <path d="m18.057 15.808h-0.7257"/>
    <path d="m17.694 15.808v-1.27"/>
    <path d="m17.694 14.538-0.1209 0.1814"/>
    <path d="m17.573 14.72-0.121 0.121"/>
    <path d="m17.452 14.841-0.1209 0.0604"/>
   </g>
   <text x="18.2687" y="18.2880" font-size="1.6933" opacity="0" text-anchor="middle" lengthAdjust="spacingAndGlyphs" textLength="5.0255">220R</text>
   <g class="stroked-text">
    <path d="m16.061 16.97 0.0604-0.0604"/>
    <path d="m16.122 16.91 0.121-0.0605"/>
    <path d="m16.243 16.85h0.3024"/>
    <path d="m16.545 16.85 0.1209 0.0605"/>
    <path d="m16.666 16.91 0.0605 0.0604"/>
    <path d="m16.727 16.97 0.0605 0.121"/>
    <path d="m16.787 17.092v0.1209"/>
    <path d="m16.787 17.212-0.0605 0.1815"/>
    <path d="m16.727 17.394-0.7257 0.7257"/>
    <path d="m16.001 18.12h0.7862"/>
    <path d="m17.271 16.97 0.0604-0.0604"/>
    <path d="m17.331 16.91 0.121-0.0605"/>
    <path d="m17.452 16.85h0.3024"/>
    <path d="m17.755 16.85 0.1209 0.0605"/>
    <path d="m17.876 16.91 0.0605 0.0604"/>
    <path d="m17.936 16.97 0.0605 0.121"/>
    <path d="m17.997 17.092v0.1209"/>
    <path d="m17.997 17.212-0.0605 0.1815"/>
    <path d="m17.936 17.394-0.7257 0.7257"/>
    <path d="m17.21 18.12h0.7862"/>
    <path d="m18.783 16.85h0.121"/>
    <path d="m18.904 16.85 0.1209 0.0605"/>
    <path d="m19.025 16.91 0.0605 0.0604"/>
    <path d="m19.085 16.97 0.0605 0.121"/>
    <path d="m19.146 17.092 0.0605 0.2419"/>
    <path d="m19.206 17.333v0.3024"/>
    <path d="m19.206 17.636-0.0605 0.2419"/>
    <path d="m19.146 17.878-0.0605 0.1209"/>
    <path d="m19.085 17.999-0.0605 0.0605"/>
    <path d="m19.025 18.059-0.1209 0.0605"/>
    <path d="m18.904 18.12h-0.121"/>
    <path d="m18.783 18.12-0.1209-0.0605"/>
    <path d="m18.662 18.059-0.0605-0.0605"/>
    <path d="m18.601 17.999-0.0605-0.1209"/>
    <path d="m18.541 17.878-0.0604-0.2419"/>
    <path d="m18.48 17.636v-0.3024"/>
    <path d="m18.48 17.333 0.0604-0.2419"/>
    <path d="m18.541 17.092 0.0605-0.121"/>
    <path d="m18.601 16.97 0.0605-0.0604"/>
    <path d="m18.662 16.91 0.1209-0.0605"/>
    <path d="m20.476 18.12-0.4233-0.6048"/>
    <path d="m19.75 18.12v-1.27"/>
    <path d="m19.75 16.85h0.4838"/>
    <path d="m20.234 16.85 0.121 0.0605"/>
    <path d="m20.355 16.91 0.0605 0.0604"/>
    <path d="m20.416 16.97 0.0604 0.121"/>
    <path d="m20.476 17.092v0.1814"/>
    <path d="m20.476 17.273-0.0604 0.121"/>
    <path d="m20.416 17.394-0.0605 0.0604"/>
    <path d="m20.355 17.454-0.121 0.0605"/>
    <path d="m20.234 17.515h-0.4838"/>
   </g>
  </g>
  <path d="m62.23 39.37v-2.54" fill="none" stroke="#000" stroke-linecap="round" stroke-linejoin="round" stroke-width=".1524"/>
  <g fill="none" fill-opacity="0" stroke="#000" stroke-linecap="round" stroke-linejoin="round" stroke-width=".254">
   <path d="m60.96 36.83h2.54v0.508"/>
   <path d="m60.96 39.37h2.54l-1.27-2.54z"/>
  </g>
  <g fill-opacity="0" stroke="#000" stroke-linecap="round" stroke-linejoin="round" stroke-width=".1524">
   <path d="m62.23 36.83v-2.54"/>
   <path d="m62.23 39.37v2.54"/>
   <text x="66.0812" y="37.4650" font-size="1.6933" opacity="0" text-anchor="middle" lengthAdjust="spacingAndGlyphs" textLength="2.6065">D2</text>
   <g class="stroked-text">
    <path d="m65.144 37.297v-1.27"/>
    <path d="m65.144 36.027h0.3024"/>
    <path d="m65.446 36.027 0.1814 0.0605"/>
    <path d="m65.628 36.087 0.121 0.1209"/>
    <path d="m65.749 36.208 0.0605 0.121"/>
    <path d="m65.809 36.329 0.0604 0.2419"/>
    <path d="m65.87 36.571v0.1814"/>
    <path d="m65.87 36.752-0.0604 0.2419"/>
    <path d="m65.809 36.994-0.0605 0.1209"/>
    <path d="m65.749 37.115-0.121 0.121"/>
    <path d="m65.628 37.236-0.1814 0.0605"/>
    <path d="m65.446 37.297h-0.3024"/>
    <path d="m66.353 36.148 0.0604-0.0604"/>
    <path d="m66.414 36.087 0.121-0.0605"/>
    <path d="m66.535 36.027h0.3024"/>
    <path d="m66.837 36.027 0.1209 0.0605"/>
    <path d="m66.958 36.087 0.0605 0.0604"/>
    <path d="m67.019 36.148 0.0605 0.121"/>
    <path d="m67.079 36.268v0.1209"/>
    <path d="m67.079 36.389-0.0605 0.1815"/>
    <path d="m67.019 36.571-0.7257 0.7257"/>
    <path d="m66.293 37.297h0.7862"/>
   </g>
   <text x="70.8890" y="40.0050" font-size="1.6933" opacity="0" text-anchor="middle" lengthAdjust="spacingAndGlyphs" textLength="12.2221">BZX384C5V1</text>
   <g class="stroked-text">
    <path d="m65.567 39.171 0.1814 0.0605"/>
    <path d="m65.749 39.232 0.0605 0.0605"/>
    <path d="m65.809 39.292 0.0604 0.1209"/>
    <path d="m65.87 39.413v0.1815"/>
    <path d="m65.87 39.595-0.0604 0.1209"/>
    <path d="m65.809 39.716-0.0605 0.0605"/>
    <path d="m65.749 39.776-0.121 0.0605"/>
    <path d="m65.628 39.837h-0.4838"/>
    <path d="m65.144 39.837v-1.27"/>
    <path d="m65.144 38.567h0.4234"/>
    <path d="m65.567 38.567 0.1209 0.0605"/>
    <path d="m65.688 38.627 0.0605 0.0604"/>
    <path d="m65.749 38.688 0.0605 0.121"/>
    <path d="m65.809 38.808v0.1209"/>
    <path d="m65.809 38.929-0.0605 0.121"/>
    <path d="m65.749 39.05-0.0605 0.0605"/>
    <path d="m65.688 39.111-0.1209 0.0604"/>
    <path d="m65.567 39.171h-0.4234"/>
    <path d="m66.293 38.567h0.8466"/>
    <path d="m67.14 38.567-0.8466 1.27"/>
    <path d="m66.293 39.837h0.8466"/>
    <path d="m67.502 38.567 0.8466 1.27"/>
    <path d="m68.349 38.567-0.8466 1.27"/>
    <path d="m68.712 38.567h0.7862"/>
    <path d="m69.498 38.567-0.4234 0.4838"/>
    <path d="m69.075 39.05h0.1815"/>
    <path d="m69.256 39.05 0.1209 0.0605"/>
    <path d="m69.377 39.111 0.0605 0.0604"/>
    <path d="m69.438 39.171 0.0605 0.121"/>
    <path d="m69.498 39.292v0.3024"/>
    <path d="m69.498 39.595-0.0605 0.1209"/>
    <path d="m69.438 39.716-0.0605 0.0605"/>
    <path d="m69.377 39.776-0.1209 0.0605"/>
    <path d="m69.256 39.837h-0.3629"/>
    <path d="m68.893 39.837-0.1209-0.0605"/>
    <path d="m68.772 39.776-0.0605-0.0605"/>
    <path d="m70.224 39.111-0.121-0.0605"/>
    <path d="m70.103 39.05-0.0605-0.0605"/>
    <path d="m70.042 38.99-0.0604-0.1209"/>
    <path d="m69.982 38.869v-0.0605"/>
    <path d="m69.982 38.808 0.0604-0.121"/>
    <path d="m70.042 38.688 0.0605-0.0604"/>
    <path d="m70.103 38.627 0.121-0.0605"/>
    <path d="m70.224 38.567h0.2419"/>
    <path d="m70.466 38.567 0.1209 0.0605"/>
    <path d="m70.587 38.627 0.0605 0.0604"/>
    <path d="m70.647 38.688 0.0605 0.121"/>
    <path d="m70.708 38.808v0.0605"/>
    <path d="m70.708 38.869-0.0605 0.1209"/>
    <path d="m70.647 38.99-0.0605 0.0605"/>
    <path d="m70.587 39.05-0.1209 0.0605"/>
    <path d="m70.466 39.111h-0.2419"/>
    <path d="m70.224 39.111-0.121 0.0604"/>
    <path d="m70.103 39.171-0.0605 0.0605"/>
    <path d="m70.042 39.232-0.0604 0.121"/>
    <path d="m69.982 39.353v0.2419"/>
    <path d="m69.982 39.595 0.0604 0.1209"/>
    <path d="m70.042 39.716 0.0605 0.0605"/>
    <path d="m70.103 39.776 0.121 0.0605"/>
    <path d="m70.224 39.837h0.2419"/>
    <path d="m70.466 39.837 0.1209-0.0605"/>
    <path d="m70.587 39.776 0.0605-0.0605"/>
    <path d="m70.647 39.716 0.0605-0.1209"/>
    <path d="m70.708 39.595v-0.2419"/>
    <path d="m70.708 39.353-0.0605-0.121"/>
    <path d="m70.647 39.232-0.0605-0.0605"/>
    <path d="m70.587 39.171-0.1209-0.0604"/>
    <path d="m71.796 38.99v0.8467"/>
    <path d="m71.494 38.506-0.3023 0.9071"/>
    <path d="m71.191 39.413h0.7861"/>
    <path d="m73.187 39.716-0.0604 0.0605"/>
    <path d="m73.127 39.776-0.1815 0.0605"/>
    <path d="m72.945 39.837h-0.1209"/>
    <path d="m72.824 39.837-0.1814-0.0605"/>
    <path d="m72.643 39.776-0.121-0.121"/>
    <path d="m72.522 39.655-0.0605-0.1209"/>
    <path d="m72.461 39.534-0.0604-0.2419"/>
    <path d="m72.401 39.292v-0.1814"/>
    <path d="m72.401 39.111 0.0604-0.2419"/>
    <path d="m72.461 38.869 0.0605-0.121"/>
    <path d="m72.522 38.748 0.121-0.1209"/>
    <path d="m72.643 38.627 0.1814-0.0605"/>
    <path d="m72.824 38.567h0.1209"/>
    <path d="m72.945 38.567 0.1815 0.0605"/>
    <path d="m73.127 38.627 0.0604 0.0604"/>
    <path d="m74.336 38.567h-0.6048"/>
    <path d="m73.731 38.567-0.0604 0.6047"/>
    <path d="m73.671 39.171 0.0604-0.0604"/>
    <path d="m73.731 39.111 0.121-0.0605"/>
    <path d="m73.852 39.05h0.3024"/>
    <path d="m74.155 39.05 0.1209 0.0605"/>
    <path d="m74.276 39.111 0.0605 0.0604"/>
    <path d="m74.336 39.171 0.0605 0.121"/>
    <path d="m74.397 39.292v0.3024"/>
    <path d="m74.397 39.595-0.0605 0.1209"/>
    <path d="m74.336 39.716-0.0605 0.0605"/>
    <path d="m74.276 39.776-0.1209 0.0605"/>
    <path d="m74.155 39.837h-0.3024"/>
    <path d="m73.852 39.837-0.121-0.0605"/>
    <path d="m73.731 39.776-0.0604-0.0605"/>
    <path d="m74.759 38.567 0.4233 1.27"/>
    <path d="m75.183 39.837 0.4234-1.27"/>
    <path d="m76.695 39.837h-0.7257"/>
    <path d="m76.332 39.837v-1.27"/>
    <path d="m76.332 38.567-0.1209 0.1814"/>
    <path d="m76.211 38.748-0.121 0.121"/>
    <path d="m76.09 38.869-0.1209 0.0604"/>
   </g>
  </g>
  <path d="m16.256 31.75h2.794" fill="none" stroke="#000" stroke-linecap="round" stroke-linejoin="round" stroke-width=".1524"/>
  <g fill="none" fill-opacity="0" stroke="#000" stroke-linecap="round" stroke-linejoin="round" stroke-width=".254">
   <path d="m16.256 29.845v3.81"/>
   <path d="m15.748 33.02v1.016"/>
   <path d="m15.748 31.242v1.016"/>
   <path d="m15.748 29.464v1.016"/>
  </g>
  <g fill="none" fill-opacity="0" stroke="#000" stroke-linecap="round" stroke-linejoin="round" stroke-width=".1524">
   <path d="m13.97 29.21v0.762"/>
   <path d="m13.97 34.29v-2.54h1.778"/>
   <path d="m15.748 33.528h-2.54v-3.556h2.54"/>
  </g>
  <g fill-opacity="1" stroke="#000" stroke-linecap="round" stroke-linejoin="round" stroke-width=".1524">
   <path d="m15.494 31.75-1.016-0.381v0.762z" fill-opacity="1" fill-rule="evenodd" stroke="#000" stroke-linecap="round" stroke-linejoin="round" stroke-width=".1524"/>
  </g>
  <g fill="none" fill-opacity="0" stroke="#000" stroke-linecap="round" stroke-linejoin="round" stroke-width=".1524">
   <path d="m13.716 31.242-0.127 0.127h-0.762l-0.127 0.127"/>
   <path d="m13.208 31.369 0.381 0.635h-0.762z"/>
  </g>
  <g fill-opacity="0" stroke="#000" stroke-linecap="round" stroke-linejoin="round" stroke-width=".254">
   <circle cx="14.859" cy="31.75" r="2.794"/>
  </g>
  <g fill-opacity="1" stroke="#000" stroke-linecap="round" stroke-linejoin="round" stroke-width=".1524">
   <circle cx="13.97" cy="33.528" r=".254"/>
   <circle cx="13.97" cy="29.972" r=".254"/>
  </g>
  <g fill-opacity="0" stroke="#000" stroke-linecap="round" stroke-linejoin="round" stroke-width=".1524">
   <path d="m19.05 31.75h2.54"/>
   <text x="20.3200" y="31.4960" font-size="1.6933" opacity="0" text-anchor="middle" lengthAdjust="spacingAndGlyphs" textLength="1.3365">1</text>
   <g class="stroked-text">
    <path d="m20.683 31.22h-0.7257"/>
    <path d="m20.32 31.22v-1.27"/>
    <path d="m20.32 29.95-0.1209 0.1814"/>
    <path d="m20.199 30.131-0.121 0.121"/>
    <path d="m20.078 30.252-0.1209 0.0604"/>
   </g>
   <path d="m13.97 34.29v2.54"/>
   <g transform="rotate(-90 13.716 35.56)">
    <text x="13.7160" y="35.5600" font-size="1.6933" opacity="0" text-anchor="middle" lengthAdjust="spacingAndGlyphs" textLength="1.3365">2</text>
   </g>
   <g class="stroked-text">
    <path d="m12.29 35.923-0.0604-0.0604"/>
    <path d="m12.23 35.862-0.0605-0.121"/>
    <path d="m12.17 35.741v-0.3024"/>
    <path d="m12.17 35.439 0.0605-0.1209"/>
    <path d="m12.23 35.318 0.0604-0.0605"/>
    <path d="m12.29 35.258 0.121-0.0605"/>
    <path d="m12.412 35.197h0.1209"/>
    <path d="m12.532 35.197 0.1815 0.0605"/>
    <path d="m12.714 35.258 0.7257 0.7257"/>
    <path d="m13.44 35.983v-0.7862"/>
   </g>
   <path d="m13.97 29.21v-2.54"/>
   <g transform="rotate(-90 13.716 27.94)">
    <text x="13.7160" y="27.9400" font-size="1.6933" opacity="0" text-anchor="middle" lengthAdjust="spacingAndGlyphs" textLength="1.3365">3</text>
   </g>
   <g class="stroked-text">
    <path d="m12.17 28.363v-0.7862"/>
    <path d="m12.17 27.577 0.4838 0.4234"/>
    <path d="m12.653 28v-0.1815"/>
    <path d="m12.653 27.819 0.0605-0.1209"/>
    <path d="m12.714 27.698 0.0604-0.0605"/>
    <path d="m12.774 27.638 0.121-0.0605"/>
    <path d="m12.895 27.577h0.3024"/>
    <path d="m13.198 27.577 0.1209 0.0605"/>
    <path d="m13.319 27.638 0.0605 0.0605"/>
    <path d="m13.379 27.698 0.0605 0.1209"/>
    <path d="m13.44 27.819v0.3629"/>
    <path d="m13.44 28.182-0.0605 0.1209"/>
    <path d="m13.379 28.303-0.0605 0.0605"/>
   </g>
   <text x="9.9616" y="31.5503" font-size="1.6933" opacity="0" text-anchor="middle" lengthAdjust="spacingAndGlyphs" textLength="2.6670">Q1</text>
   <g class="stroked-text">
    <path d="m9.8406 31.503-0.121-0.0604"/>
    <path d="m9.7196 31.442-0.1209-0.121"/>
    <path d="m9.5987 31.321-0.1814-0.1814"/>
    <path d="m9.4173 31.14-0.121-0.0605"/>
    <path d="m9.2963 31.08h-0.1209"/>
    <path d="m9.2358 31.382-0.1209-0.0605"/>
    <path d="m9.1149 31.321-0.121-0.121"/>
    <path d="m8.9939 31.2-0.0604-0.2419"/>
    <path d="m8.9335 30.958v-0.4233"/>
    <path d="m8.9335 30.535 0.0604-0.2419"/>
    <path d="m8.9939 30.293 0.121-0.1209"/>
    <path d="m9.1149 30.172 0.1209-0.0605"/>
    <path d="m9.2358 30.112h0.2419"/>
    <path d="m9.4777 30.112 0.121 0.0605"/>
    <path d="m9.5987 30.172 0.1209 0.1209"/>
    <path d="m9.7196 30.293 0.0605 0.2419"/>
    <path d="m9.7801 30.535v0.4233"/>
    <path d="m9.7801 30.958-0.0605 0.2419"/>
    <path d="m9.7196 31.2-0.1209 0.121"/>
    <path d="m9.5987 31.321-0.121 0.0605"/>
    <path d="m9.4777 31.382h-0.2419"/>
    <path d="m10.99 31.382h-0.7257"/>
    <path d="m10.627 31.382v-1.27"/>
    <path d="m10.627 30.112-0.1209 0.1814"/>
    <path d="m10.506 30.293-0.121 0.121"/>
    <path d="m10.385 30.414-0.1209 0.0604"/>
   </g>
   <text x="6.9076" y="34.0872" font-size="1.6933" opacity="0" text-anchor="middle" lengthAdjust="spacingAndGlyphs" textLength="8.7750">2N7002K</text>
   <g class="stroked-text">
    <path d="m2.8255 32.77 0.0604-0.0604"/>
    <path d="m2.8859 32.709 0.121-0.0605"/>
    <path d="m3.0069 32.649h0.3024"/>
    <path d="m3.3093 32.649 0.1209 0.0605"/>
    <path d="m3.4302 32.709 0.0605 0.0604"/>
    <path d="m3.4907 32.77 0.0605 0.121"/>
    <path d="m3.5512 32.891v0.1209"/>
    <path d="m3.5512 33.012-0.0605 0.1815"/>
    <path d="m3.4907 33.193-0.7257 0.7257"/>
    <path d="m2.765 33.919h0.7862"/>
    <path d="m4.0954 33.919v-1.27"/>
    <path d="m4.0954 32.649 0.7257 1.27"/>
    <path d="m4.8211 33.919v-1.27"/>
    <path d="m5.305 32.649h0.8466"/>
    <path d="m6.1516 32.649-0.5442 1.27"/>
    <path d="m6.8773 32.649h0.121"/>
    <path d="m6.9983 32.649 0.1209 0.0605"/>
    <path d="m7.1192 32.709 0.0605 0.0604"/>
    <path d="m7.1797 32.77 0.0605 0.121"/>
    <path d="m7.2402 32.891 0.0605 0.2419"/>
    <path d="m7.3007 33.133v0.3024"/>
    <path d="m7.3007 33.435-0.0605 0.2419"/>
    <path d="m7.2402 33.677-0.0605 0.1209"/>
    <path d="m7.1797 33.798-0.0605 0.0605"/>
    <path d="m7.1192 33.858-0.1209 0.0605"/>
    <path d="m6.9983 33.919h-0.121"/>
    <path d="m6.8773 33.919-0.1209-0.0605"/>
    <path d="m6.7564 33.858-0.0605-0.0605"/>
    <path d="m6.6959 33.798-0.0605-0.1209"/>
    <path d="m6.6354 33.677-0.0604-0.2419"/>
    <path d="m6.575 33.435v-0.3024"/>
    <path d="m6.575 33.133 0.0604-0.2419"/>
    <path d="m6.6354 32.891 0.0605-0.121"/>
    <path d="m6.6959 32.77 0.0605-0.0604"/>
    <path d="m6.7564 32.709 0.1209-0.0605"/>
    <path d="m8.0868 32.649h0.121"/>
    <path d="m8.2078 32.649 0.1209 0.0605"/>
    <path d="m8.3287 32.709 0.0605 0.0604"/>
    <path d="m8.3892 32.77 0.0605 0.121"/>
    <path d="m8.4497 32.891 0.0605 0.2419"/>
    <path d="m8.5102 33.133v0.3024"/>
    <path d="m8.5102 33.435-0.0605 0.2419"/>
    <path d="m8.4497 33.677-0.0605 0.1209"/>
    <path d="m8.3892 33.798-0.0605 0.0605"/>
    <path d="m8.3287 33.858-0.1209 0.0605"/>
    <path d="m8.2078 33.919h-0.121"/>
    <path d="m8.0868 33.919-0.1209-0.0605"/>
    <path d="m7.9659 33.858-0.0605-0.0605"/>
    <path d="m7.9054 33.798-0.0605-0.1209"/>
    <path d="m7.8449 33.677-0.0604-0.2419"/>
    <path d="m7.7845 33.435v-0.3024"/>
    <path d="m7.7845 33.133 0.0604-0.2419"/>
    <path d="m7.8449 32.891 0.0605-0.121"/>
    <path d="m7.9054 32.77 0.0605-0.0604"/>
    <path d="m7.9659 32.709 0.1209-0.0605"/>
    <path d="m8.994 32.77 0.0604-0.0604"/>
    <path d="m9.0544 32.709 0.121-0.0605"/>
    <path d="m9.1754 32.649h0.3024"/>
    <path d="m9.4778 32.649 0.1209 0.0605"/>
    <path d="m9.5987 32.709 0.0605 0.0604"/>
    <path d="m9.6592 32.77 0.0605 0.121"/>
    <path d="m9.7197 32.891v0.1209"/>
    <path d="m9.7197 33.012-0.0605 0.1815"/>
    <path d="m9.6592 33.193-0.7257 0.7257"/>
    <path d="m8.9335 33.919h0.7862"/>
    <path d="m10.264 33.919v-1.27"/>
    <path d="m10.99 33.919-0.5442-0.7257"/>
    <path d="m10.99 32.649-0.7257 0.7257"/>
   </g>
  </g>
  <g fill-opacity="0" stroke="#000" stroke-linecap="round" stroke-linejoin="round" stroke-width=".254">
   <rect x="84.074" y="39.37" width="2.032" height="5.08" rx="0"/>
  </g>
  <g fill-opacity="0" stroke="#000" stroke-linecap="round" stroke-linejoin="round" stroke-width=".1524">
   <path d="m85.09 39.37v-1.27"/>
   <path d="m85.09 44.45v1.27"/>
   <text x="88.1792" y="41.3766" font-size="1.6933" opacity="0" text-anchor="middle" lengthAdjust="spacingAndGlyphs" textLength="2.6065">R6</text>
   <g class="stroked-text">
    <path d="m87.968 41.208-0.4233-0.6048"/>
    <path d="m87.242 41.208v-1.27"/>
    <path d="m87.242 39.938h0.4838"/>
    <path d="m87.726 39.938 0.121 0.0605"/>
    <path d="m87.847 39.999 0.0605 0.0604"/>
    <path d="m87.907 40.059 0.0604 0.121"/>
    <path d="m87.968 40.18v0.1814"/>
    <path d="m87.968 40.362-0.0604 0.121"/>
    <path d="m87.907 40.482-0.0605 0.0604"/>
    <path d="m87.847 40.543-0.121 0.0605"/>
    <path d="m87.726 40.603h-0.4838"/>
    <path d="m89.056 39.938h-0.2419"/>
    <path d="m88.814 39.938-0.1209 0.0605"/>
    <path d="m88.693 39.999-0.0605 0.0604"/>
    <path d="m88.633 40.059-0.121 0.1815"/>
    <path d="m88.512 40.241-0.0604 0.2419"/>
    <path d="m88.451 40.482v0.4838"/>
    <path d="m88.451 40.966 0.0604 0.1209"/>
    <path d="m88.512 41.087 0.0605 0.0605"/>
    <path d="m88.572 41.148 0.121 0.0605"/>
    <path d="m88.693 41.208h0.2419"/>
    <path d="m88.935 41.208 0.1209-0.0605"/>
    <path d="m89.056 41.148 0.0605-0.0605"/>
    <path d="m89.117 41.087 0.0605-0.1209"/>
    <path d="m89.177 40.966v-0.3024"/>
    <path d="m89.177 40.664-0.0605-0.121"/>
    <path d="m89.117 40.543-0.0605-0.0604"/>
    <path d="m89.056 40.482-0.1209-0.0605"/>
    <path d="m88.935 40.422h-0.2419"/>
    <path d="m88.693 40.422-0.121 0.0605"/>
    <path d="m88.572 40.482-0.0605 0.0604"/>
    <path d="m88.512 40.543-0.0604 0.121"/>
   </g>
   <text x="88.8747" y="43.6880" font-size="1.6933" opacity="0" text-anchor="middle" lengthAdjust="spacingAndGlyphs" textLength="3.9974">4M7</text>
   <g class="stroked-text">
    <path d="m87.786 42.673v0.8467"/>
    <path d="m87.484 42.189-0.3023 0.9071"/>
    <path d="m87.181 43.096h0.7861"/>
    <path d="m88.451 43.52v-1.27"/>
    <path d="m88.451 42.25 0.4234 0.9071"/>
    <path d="m88.875 43.157 0.4233-0.9071"/>
    <path d="m89.298 42.25v1.27"/>
    <path d="m89.782 42.25h0.8466"/>
    <path d="m90.628 42.25-0.5442 1.27"/>
   </g>
  </g>
  <path d="m62.23 44.45v2.54" fill="none" stroke="#000" stroke-linecap="round" stroke-linejoin="round" stroke-width=".1524"/>
  <g fill="none" fill-opacity="0" stroke="#000" stroke-linecap="round" stroke-linejoin="round" stroke-width=".254">
   <path d="m63.5 46.99h-2.54v-0.508"/>
   <path d="m63.5 44.45h-2.54l1.27 2.54z"/>
  </g>
  <g fill-opacity="0" stroke="#000" stroke-linecap="round" stroke-linejoin="round" stroke-width=".1524">
   <path d="m62.23 46.99v2.54"/>
   <path d="m62.23 44.45v-2.54"/>
   <text x="66.0812" y="45.0850" font-size="1.6933" opacity="0" text-anchor="middle" lengthAdjust="spacingAndGlyphs" textLength="2.6065">D3</text>
   <g class="stroked-text">
    <path d="m65.144 44.917v-1.27"/>
    <path d="m65.144 43.647h0.3024"/>
    <path d="m65.446 43.647 0.1814 0.0605"/>
    <path d="m65.628 43.707 0.121 0.1209"/>
    <path d="m65.749 43.828 0.0605 0.121"/>
    <path d="m65.809 43.949 0.0604 0.2419"/>
    <path d="m65.87 44.191v0.1814"/>
    <path d="m65.87 44.372-0.0604 0.2419"/>
    <path d="m65.809 44.614-0.0605 0.1209"/>
    <path d="m65.749 44.735-0.121 0.121"/>
    <path d="m65.628 44.856-0.1814 0.0605"/>
    <path d="m65.446 44.917h-0.3024"/>
    <path d="m66.293 43.647h0.7862"/>
    <path d="m67.079 43.647-0.4234 0.4838"/>
    <path d="m66.656 44.13h0.1815"/>
    <path d="m66.837 44.13 0.1209 0.0605"/>
    <path d="m66.958 44.191 0.0605 0.0604"/>
    <path d="m67.019 44.251 0.0605 0.121"/>
    <path d="m67.079 44.372v0.3024"/>
    <path d="m67.079 44.675-0.0605 0.1209"/>
    <path d="m67.019 44.796-0.0605 0.0605"/>
    <path d="m66.958 44.856-0.1209 0.0605"/>
    <path d="m66.837 44.917h-0.3629"/>
    <path d="m66.474 44.917-0.1209-0.0605"/>
    <path d="m66.353 44.856-0.0605-0.0605"/>
   </g>
   <text x="70.8890" y="47.6250" font-size="1.6933" opacity="0" text-anchor="middle" lengthAdjust="spacingAndGlyphs" textLength="12.2221">BZX384C5V1</text>
   <g class="stroked-text">
    <path d="m65.567 46.791 0.1814 0.0605"/>
    <path d="m65.749 46.852 0.0605 0.0605"/>
    <path d="m65.809 46.912 0.0604 0.1209"/>
    <path d="m65.87 47.033v0.1815"/>
    <path d="m65.87 47.215-0.0604 0.1209"/>
    <path d="m65.809 47.336-0.0605 0.0605"/>
    <path d="m65.749 47.396-0.121 0.0605"/>
    <path d="m65.628 47.457h-0.4838"/>
    <path d="m65.144 47.457v-1.27"/>
    <path d="m65.144 46.187h0.4234"/>
    <path d="m65.567 46.187 0.1209 0.0605"/>
    <path d="m65.688 46.247 0.0605 0.0604"/>
    <path d="m65.749 46.308 0.0605 0.121"/>
    <path d="m65.809 46.428v0.1209"/>
    <path d="m65.809 46.549-0.0605 0.121"/>
    <path d="m65.749 46.67-0.0605 0.0605"/>
    <path d="m65.688 46.731-0.1209 0.0604"/>
    <path d="m65.567 46.791h-0.4234"/>
    <path d="m66.293 46.187h0.8466"/>
    <path d="m67.14 46.187-0.8466 1.27"/>
    <path d="m66.293 47.457h0.8466"/>
    <path d="m67.502 46.187 0.8466 1.27"/>
    <path d="m68.349 46.187-0.8466 1.27"/>
    <path d="m68.712 46.187h0.7862"/>
    <path d="m69.498 46.187-0.4234 0.4838"/>
    <path d="m69.075 46.67h0.1815"/>
    <path d="m69.256 46.67 0.1209 0.0605"/>
    <path d="m69.377 46.731 0.0605 0.0604"/>
    <path d="m69.438 46.791 0.0605 0.121"/>
    <path d="m69.498 46.912v0.3024"/>
    <path d="m69.498 47.215-0.0605 0.1209"/>
    <path d="m69.438 47.336-0.0605 0.0605"/>
    <path d="m69.377 47.396-0.1209 0.0605"/>
    <path d="m69.256 47.457h-0.3629"/>
    <path d="m68.893 47.457-0.1209-0.0605"/>
    <path d="m68.772 47.396-0.0605-0.0605"/>
    <path d="m70.224 46.731-0.121-0.0605"/>
    <path d="m70.103 46.67-0.0605-0.0605"/>
    <path d="m70.042 46.61-0.0604-0.1209"/>
    <path d="m69.982 46.489v-0.0605"/>
    <path d="m69.982 46.428 0.0604-0.121"/>
    <path d="m70.042 46.308 0.0605-0.0604"/>
    <path d="m70.103 46.247 0.121-0.0605"/>
    <path d="m70.224 46.187h0.2419"/>
    <path d="m70.466 46.187 0.1209 0.0605"/>
    <path d="m70.587 46.247 0.0605 0.0604"/>
    <path d="m70.647 46.308 0.0605 0.121"/>
    <path d="m70.708 46.428v0.0605"/>
    <path d="m70.708 46.489-0.0605 0.1209"/>
    <path d="m70.647 46.61-0.0605 0.0605"/>
    <path d="m70.587 46.67-0.1209 0.0605"/>
    <path d="m70.466 46.731h-0.2419"/>
    <path d="m70.224 46.731-0.121 0.0604"/>
    <path d="m70.103 46.791-0.0605 0.0605"/>
    <path d="m70.042 46.852-0.0604 0.121"/>
    <path d="m69.982 46.973v0.2419"/>
    <path d="m69.982 47.215 0.0604 0.1209"/>
    <path d="m70.042 47.336 0.0605 0.0605"/>
    <path d="m70.103 47.396 0.121 0.0605"/>
    <path d="m70.224 47.457h0.2419"/>
    <path d="m70.466 47.457 0.1209-0.0605"/>
    <path d="m70.587 47.396 0.0605-0.0605"/>
    <path d="m70.647 47.336 0.0605-0.1209"/>
    <path d="m70.708 47.215v-0.2419"/>
    <path d="m70.708 46.973-0.0605-0.121"/>
    <path d="m70.647 46.852-0.0605-0.0605"/>
    <path d="m70.587 46.791-0.1209-0.0604"/>
    <path d="m71.796 46.61v0.8467"/>
    <path d="m71.494 46.126-0.3023 0.9071"/>
    <path d="m71.191 47.033h0.7861"/>
    <path d="m73.187 47.336-0.0604 0.0605"/>
    <path d="m73.127 47.396-0.1815 0.0605"/>
    <path d="m72.945 47.457h-0.1209"/>
    <path d="m72.824 47.457-0.1814-0.0605"/>
    <path d="m72.643 47.396-0.121-0.121"/>
    <path d="m72.522 47.275-0.0605-0.1209"/>
    <path d="m72.461 47.154-0.0604-0.2419"/>
    <path d="m72.401 46.912v-0.1814"/>
    <path d="m72.401 46.731 0.0604-0.2419"/>
    <path d="m72.461 46.489 0.0605-0.121"/>
    <path d="m72.522 46.368 0.121-0.1209"/>
    <path d="m72.643 46.247 0.1814-0.0605"/>
    <path d="m72.824 46.187h0.1209"/>
    <path d="m72.945 46.187 0.1815 0.0605"/>
    <path d="m73.127 46.247 0.0604 0.0604"/>
    <path d="m74.336 46.187h-0.6048"/>
    <path d="m73.731 46.187-0.0604 0.6047"/>
    <path d="m73.671 46.791 0.0604-0.0604"/>
    <path d="m73.731 46.731 0.121-0.0605"/>
    <path d="m73.852 46.67h0.3024"/>
    <path d="m74.155 46.67 0.1209 0.0605"/>
    <path d="m74.276 46.731 0.0605 0.0604"/>
    <path d="m74.336 46.791 0.0605 0.121"/>
    <path d="m74.397 46.912v0.3024"/>
    <path d="m74.397 47.215-0.0605 0.1209"/>
    <path d="m74.336 47.336-0.0605 0.0605"/>
    <path d="m74.276 47.396-0.1209 0.0605"/>
    <path d="m74.155 47.457h-0.3024"/>
    <path d="m73.852 47.457-0.121-0.0605"/>
    <path d="m73.731 47.396-0.0604-0.0605"/>
    <path d="m74.759 46.187 0.4233 1.27"/>
    <path d="m75.183 47.457 0.4234-1.27"/>
    <path d="m76.695 47.457h-0.7257"/>
    <path d="m76.332 47.457v-1.27"/>
    <path d="m76.332 46.187-0.1209 0.1814"/>
    <path d="m76.211 46.368-0.121 0.121"/>
    <path d="m76.09 46.489-0.1209 0.0604"/>
   </g>
  </g>
  <g fill="none" fill-opacity="0" stroke="#000" stroke-linecap="round" stroke-linejoin="round" stroke-width=".508">
   <path d="m95.758 42.672h4.064"/>
   <path d="m95.758 41.148h4.064"/>
  </g>
  <g fill-opacity="0" stroke="#000" stroke-linecap="round" stroke-linejoin="round" stroke-width=".1524">
   <path d="m97.79 40.894v-2.794"/>
   <path d="m97.79 42.926v2.794"/>
   <text x="102.0222" y="41.3766" font-size="1.6933" opacity="0" text-anchor="middle" lengthAdjust="spacingAndGlyphs" textLength="2.6065">C2</text>
   <g class="stroked-text">
    <path d="m101.81 41.087-0.0604 0.0605"/>
    <path d="m101.75 41.148-0.1815 0.0605"/>
    <path d="m101.57 41.208h-0.1209"/>
    <path d="m101.45 41.208-0.1814-0.0605"/>
    <path d="m101.27 41.148-0.121-0.121"/>
    <path d="m101.15 41.027-0.0605-0.1209"/>
    <path d="m101.08 40.906-0.0604-0.2419"/>
    <path d="m101.02 40.664v-0.1814"/>
    <path d="m101.02 40.482 0.0604-0.2419"/>
    <path d="m101.08 40.241 0.0605-0.121"/>
    <path d="m101.15 40.12 0.121-0.1209"/>
    <path d="m101.27 39.999 0.1814-0.0605"/>
    <path d="m101.45 39.938h0.1209"/>
    <path d="m101.57 39.938 0.1815 0.0605"/>
    <path d="m101.75 39.999 0.0604 0.0604"/>
    <path d="m102.29 40.059 0.0604-0.0604"/>
    <path d="m102.35 39.999 0.121-0.0605"/>
    <path d="m102.48 39.938h0.3024"/>
    <path d="m102.78 39.938 0.1209 0.0605"/>
    <path d="m102.9 39.999 0.0605 0.0604"/>
    <path d="m102.96 40.059 0.0605 0.121"/>
    <path d="m103.02 40.18v0.1209"/>
    <path d="m103.02 40.301-0.0605 0.1815"/>
    <path d="m102.96 40.482-0.7257 0.7257"/>
    <path d="m102.23 41.208h0.7862"/>
   </g>
   <text x="103.1712" y="43.6880" font-size="1.6933" opacity="0" text-anchor="middle" lengthAdjust="spacingAndGlyphs" textLength="4.9045">220n</text>
   <g class="stroked-text">
    <path d="m101.02 42.37 0.0604-0.0604"/>
    <path d="m101.08 42.31 0.121-0.0605"/>
    <path d="m101.21 42.25h0.3024"/>
    <path d="m101.51 42.25 0.1209 0.0605"/>
    <path d="m101.63 42.31 0.0605 0.0604"/>
    <path d="m101.69 42.37 0.0605 0.121"/>
    <path d="m101.75 42.492v0.1209"/>
    <path d="m101.75 42.612-0.0605 0.1815"/>
    <path d="m101.69 42.794-0.7257 0.7257"/>
    <path d="m100.96 43.52h0.7862"/>
    <path d="m102.23 42.37 0.0604-0.0604"/>
    <path d="m102.29 42.31 0.121-0.0605"/>
    <path d="m102.42 42.25h0.3024"/>
    <path d="m102.72 42.25 0.1209 0.0605"/>
    <path d="m102.84 42.31 0.0605 0.0604"/>
    <path d="m102.9 42.37 0.0605 0.121"/>
    <path d="m102.96 42.492v0.1209"/>
    <path d="m102.96 42.612-0.0605 0.1815"/>
    <path d="m102.9 42.794-0.7257 0.7257"/>
    <path d="m102.17 43.52h0.7862"/>
    <path d="m103.75 42.25h0.121"/>
    <path d="m103.87 42.25 0.1209 0.0605"/>
    <path d="m103.99 42.31 0.0605 0.0604"/>
    <path d="m104.05 42.37 0.0605 0.121"/>
    <path d="m104.11 42.492 0.0605 0.2419"/>
    <path d="m104.17 42.733v0.3024"/>
    <path d="m104.17 43.036-0.0605 0.2419"/>
    <path d="m104.11 43.278-0.0605 0.1209"/>
    <path d="m104.05 43.399-0.0605 0.0605"/>
    <path d="m103.99 43.459-0.1209 0.0605"/>
    <path d="m103.87 43.52h-0.121"/>
    <path d="m103.75 43.52-0.1209-0.0605"/>
    <path d="m103.62 43.459-0.0605-0.0605"/>
    <path d="m103.56 43.399-0.0605-0.1209"/>
    <path d="m103.5 43.278-0.0604-0.2419"/>
    <path d="m103.44 43.036v-0.3024"/>
    <path d="m103.44 42.733 0.0604-0.2419"/>
    <path d="m103.5 42.492 0.0605-0.121"/>
    <path d="m103.56 42.37 0.0605-0.0604"/>
    <path d="m103.62 42.31 0.1209-0.0605"/>
    <path d="m104.71 42.673v0.8467"/>
    <path d="m104.71 42.794 0.0605-0.0605"/>
    <path d="m104.77 42.733 0.121-0.0605"/>
    <path d="m104.89 42.673h0.1814"/>
    <path d="m105.08 42.673 0.1209 0.0605"/>
    <path d="m105.2 42.733 0.0605 0.1209"/>
    <path d="m105.26 42.854v0.6653"/>
   </g>
  </g>
  <path d="m108.2 31.75h-2.794" fill="none" stroke="#000" stroke-linecap="round" stroke-linejoin="round" stroke-width=".1524"/>
  <g fill="none" fill-opacity="0" stroke="#000" stroke-linecap="round" stroke-linejoin="round" stroke-width=".254">
   <path d="m108.2 29.845v3.81"/>
   <path d="m108.71 33.02v1.016"/>
   <path d="m108.71 31.242v1.016"/>
   <path d="m108.71 29.464v1.016"/>
  </g>
  <g fill="none" fill-opacity="0" stroke="#000" stroke-linecap="round" stroke-linejoin="round" stroke-width=".1524">
   <path d="m110.49 29.21v0.762"/>
   <path d="m110.49 34.29v-2.54h-1.778"/>
   <path d="m108.71 33.528h2.54v-3.556h-2.54"/>
  </g>
  <g fill-opacity="1" stroke="#000" stroke-linecap="round" stroke-linejoin="round" stroke-width=".1524">
   <path d="m108.97 31.75 1.016-0.381v0.762z" fill-opacity="1" fill-rule="evenodd" stroke="#000" stroke-linecap="round" stroke-linejoin="round" stroke-width=".1524"/>
  </g>
  <g fill="none" fill-opacity="0" stroke="#000" stroke-linecap="round" stroke-linejoin="round" stroke-width=".1524">
   <path d="m110.74 31.242 0.127 0.127h0.762l0.127 0.127"/>
   <path d="m111.25 31.369-0.381 0.635h0.762z"/>
  </g>
  <g fill-opacity="0" stroke="#000" stroke-linecap="round" stroke-linejoin="round" stroke-width=".254">
   <circle cx="109.6" cy="31.75" r="2.794"/>
  </g>
  <g fill-opacity="1" stroke="#000" stroke-linecap="round" stroke-linejoin="round" stroke-width=".1524">
   <circle cx="110.49" cy="33.528" r=".254"/>
   <circle cx="110.49" cy="29.972" r=".254"/>
  </g>
  <g fill-opacity="0" stroke="#000" stroke-linecap="round" stroke-linejoin="round" stroke-width=".1524">
   <path d="m105.41 31.75h-2.54"/>
   <text x="104.1400" y="31.4960" font-size="1.6933" opacity="0" text-anchor="middle" lengthAdjust="spacingAndGlyphs" textLength="1.3365">1</text>
   <g class="stroked-text">
    <path d="m104.5 31.22h-0.7257"/>
    <path d="m104.14 31.22v-1.27"/>
    <path d="m104.14 29.95-0.1209 0.1814"/>
    <path d="m104.02 30.131-0.121 0.121"/>
    <path d="m103.9 30.252-0.1209 0.0604"/>
   </g>
   <path d="m110.49 34.29v2.54"/>
   <g transform="rotate(-90 110.24 35.56)">
    <text x="110.2360" y="35.5600" font-size="1.6933" opacity="0" text-anchor="middle" lengthAdjust="spacingAndGlyphs" textLength="1.3365">2</text>
   </g>
   <g class="stroked-text">
    <path d="m108.81 35.923-0.0604-0.0604"/>
    <path d="m108.75 35.862-0.0605-0.121"/>
    <path d="m108.69 35.741v-0.3024"/>
    <path d="m108.69 35.439 0.0605-0.1209"/>
    <path d="m108.75 35.318 0.0604-0.0605"/>
    <path d="m108.81 35.258 0.121-0.0605"/>
    <path d="m108.93 35.197h0.1209"/>
    <path d="m109.05 35.197 0.1815 0.0605"/>
    <path d="m109.23 35.258 0.7257 0.7257"/>
    <path d="m109.96 35.983v-0.7862"/>
   </g>
   <path d="m110.49 29.21v-2.54"/>
   <g transform="rotate(-90 110.24 27.94)">
    <text x="110.2360" y="27.9400" font-size="1.6933" opacity="0" text-anchor="middle" lengthAdjust="spacingAndGlyphs" textLength="1.3365">3</text>
   </g>
   <g class="stroked-text">
    <path d="m108.69 28.363v-0.7862"/>
    <path d="m108.69 27.577 0.4838 0.4234"/>
    <path d="m109.17 28v-0.1815"/>
    <path d="m109.17 27.819 0.0605-0.1209"/>
    <path d="m109.23 27.698 0.0604-0.0605"/>
    <path d="m109.29 27.638 0.121-0.0605"/>
    <path d="m109.42 27.577h0.3024"/>
    <path d="m109.72 27.577 0.1209 0.0605"/>
    <path d="m109.84 27.638 0.0605 0.0605"/>
    <path d="m109.9 27.698 0.0605 0.1209"/>
    <path d="m109.96 27.819v0.3629"/>
    <path d="m109.96 28.182-0.0605 0.1209"/>
    <path d="m109.9 28.303-0.0605 0.0605"/>
   </g>
   <text x="114.4985" y="31.5503" font-size="1.6933" opacity="0" text-anchor="middle" lengthAdjust="spacingAndGlyphs" textLength="2.6670">Q2</text>
   <g class="stroked-text">
    <path d="m114.38 31.503-0.121-0.0604"/>
    <path d="m114.26 31.442-0.1209-0.121"/>
    <path d="m114.14 31.321-0.1814-0.1814"/>
    <path d="m113.95 31.14-0.121-0.0605"/>
    <path d="m113.83 31.08h-0.1209"/>
    <path d="m113.77 31.382-0.1209-0.0605"/>
    <path d="m113.65 31.321-0.121-0.121"/>
    <path d="m113.53 31.2-0.0604-0.2419"/>
    <path d="m113.47 30.958v-0.4233"/>
    <path d="m113.47 30.535 0.0604-0.2419"/>
    <path d="m113.53 30.293 0.121-0.1209"/>
    <path d="m113.65 30.172 0.1209-0.0605"/>
    <path d="m113.77 30.112h0.2419"/>
    <path d="m114.01 30.112 0.121 0.0605"/>
    <path d="m114.14 30.172 0.1209 0.1209"/>
    <path d="m114.26 30.293 0.0605 0.2419"/>
    <path d="m114.32 30.535v0.4233"/>
    <path d="m114.32 30.958-0.0605 0.2419"/>
    <path d="m114.26 31.2-0.1209 0.121"/>
    <path d="m114.14 31.321-0.121 0.0605"/>
    <path d="m114.01 31.382h-0.2419"/>
    <path d="m114.8 30.233 0.0604-0.0604"/>
    <path d="m114.86 30.172 0.121-0.0605"/>
    <path d="m114.98 30.112h0.3024"/>
    <path d="m115.28 30.112 0.1209 0.0605"/>
    <path d="m115.41 30.172 0.0605 0.0604"/>
    <path d="m115.47 30.233 0.0605 0.121"/>
    <path d="m115.53 30.354v0.1209"/>
    <path d="m115.53 30.475-0.0605 0.1815"/>
    <path d="m115.47 30.656-0.7257 0.7257"/>
    <path d="m114.74 31.382h0.7862"/>
   </g>
   <text x="117.5525" y="34.0872" font-size="1.6933" opacity="0" text-anchor="middle" lengthAdjust="spacingAndGlyphs" textLength="8.7750">2N7002K</text>
   <g class="stroked-text">
    <path d="m113.47 32.77 0.0604-0.0604"/>
    <path d="m113.53 32.709 0.121-0.0605"/>
    <path d="m113.65 32.649h0.3024"/>
    <path d="m113.95 32.649 0.1209 0.0605"/>
    <path d="m114.08 32.709 0.0605 0.0604"/>
    <path d="m114.14 32.77 0.0605 0.121"/>
    <path d="m114.2 32.891v0.1209"/>
    <path d="m114.2 33.012-0.0605 0.1815"/>
    <path d="m114.14 33.193-0.7257 0.7257"/>
    <path d="m113.41 33.919h0.7862"/>
    <path d="m114.74 33.919v-1.27"/>
    <path d="m114.74 32.649 0.7257 1.27"/>
    <path d="m115.47 33.919v-1.27"/>
    <path d="m115.95 32.649h0.8466"/>
    <path d="m116.8 32.649-0.5442 1.27"/>
    <path d="m117.52 32.649h0.121"/>
    <path d="m117.64 32.649 0.1209 0.0605"/>
    <path d="m117.76 32.709 0.0605 0.0604"/>
    <path d="m117.82 32.77 0.0605 0.121"/>
    <path d="m117.89 32.891 0.0605 0.2419"/>
    <path d="m117.95 33.133v0.3024"/>
    <path d="m117.95 33.435-0.0605 0.2419"/>
    <path d="m117.89 33.677-0.0605 0.1209"/>
    <path d="m117.82 33.798-0.0605 0.0605"/>
    <path d="m117.76 33.858-0.1209 0.0605"/>
    <path d="m117.64 33.919h-0.121"/>
    <path d="m117.52 33.919-0.1209-0.0605"/>
    <path d="m117.4 33.858-0.0605-0.0605"/>
    <path d="m117.34 33.798-0.0605-0.1209"/>
    <path d="m117.28 33.677-0.0604-0.2419"/>
    <path d="m117.22 33.435v-0.3024"/>
    <path d="m117.22 33.133 0.0604-0.2419"/>
    <path d="m117.28 32.891 0.0605-0.121"/>
    <path d="m117.34 32.77 0.0605-0.0604"/>
    <path d="m117.4 32.709 0.1209-0.0605"/>
    <path d="m118.73 32.649h0.121"/>
    <path d="m118.85 32.649 0.1209 0.0605"/>
    <path d="m118.97 32.709 0.0605 0.0604"/>
    <path d="m119.03 32.77 0.0605 0.121"/>
    <path d="m119.09 32.891 0.0605 0.2419"/>
    <path d="m119.16 33.133v0.3024"/>
    <path d="m119.16 33.435-0.0605 0.2419"/>
    <path d="m119.09 33.677-0.0605 0.1209"/>
    <path d="m119.03 33.798-0.0605 0.0605"/>
    <path d="m118.97 33.858-0.1209 0.0605"/>
    <path d="m118.85 33.919h-0.121"/>
    <path d="m118.73 33.919-0.1209-0.0605"/>
    <path d="m118.61 33.858-0.0605-0.0605"/>
    <path d="m118.55 33.798-0.0605-0.1209"/>
    <path d="m118.49 33.677-0.0604-0.2419"/>
    <path d="m118.43 33.435v-0.3024"/>
    <path d="m118.43 33.133 0.0604-0.2419"/>
    <path d="m118.49 32.891 0.0605-0.121"/>
    <path d="m118.55 32.77 0.0605-0.0604"/>
    <path d="m118.61 32.709 0.1209-0.0605"/>
    <path d="m119.64 32.77 0.0604-0.0604"/>
    <path d="m119.7 32.709 0.121-0.0605"/>
    <path d="m119.82 32.649h0.3024"/>
    <path d="m120.12 32.649 0.1209 0.0605"/>
    <path d="m120.24 32.709 0.0605 0.0604"/>
    <path d="m120.3 32.77 0.0605 0.121"/>
    <path d="m120.36 32.891v0.1209"/>
    <path d="m120.36 33.012-0.0605 0.1815"/>
    <path d="m120.3 33.193-0.7257 0.7257"/>
    <path d="m119.58 33.919h0.7862"/>
    <path d="m120.91 33.919v-1.27"/>
    <path d="m121.63 33.919-0.5442-0.7257"/>
    <path d="m121.63 32.649-0.7257 0.7257"/>
   </g>
  </g>
  <g fill="none" fill-opacity="0" stroke="#000" stroke-linecap="round" stroke-linejoin="round" stroke-width=".508">
   <path d="m24.638 42.672h4.064"/>
   <path d="m24.638 41.148h4.064"/>
  </g>
  <g fill-opacity="0" stroke="#000" stroke-linecap="round" stroke-linejoin="round" stroke-width=".1524">
   <path d="m26.67 40.894v-2.794"/>
   <path d="m26.67 42.926v2.794"/>
   <text x="30.9022" y="41.3766" font-size="1.6933" opacity="0" text-anchor="middle" lengthAdjust="spacingAndGlyphs" textLength="2.6065">C1</text>
   <g class="stroked-text">
    <path d="m30.69 41.087-0.0604 0.0605"/>
    <path d="m30.63 41.148-0.1815 0.0605"/>
    <path d="m30.449 41.208h-0.1209"/>
    <path d="m30.328 41.208-0.1814-0.0605"/>
    <path d="m30.146 41.148-0.121-0.121"/>
    <path d="m30.025 41.027-0.0605-0.1209"/>
    <path d="m29.965 40.906-0.0604-0.2419"/>
    <path d="m29.904 40.664v-0.1814"/>
    <path d="m29.904 40.482 0.0604-0.2419"/>
    <path d="m29.965 40.241 0.0605-0.121"/>
    <path d="m30.025 40.12 0.121-0.1209"/>
    <path d="m30.146 39.999 0.1814-0.0605"/>
    <path d="m30.328 39.938h0.1209"/>
    <path d="m30.449 39.938 0.1815 0.0605"/>
    <path d="m30.63 39.999 0.0604 0.0604"/>
    <path d="m31.9 41.208h-0.7257"/>
    <path d="m31.537 41.208v-1.27"/>
    <path d="m31.537 39.938-0.1209 0.1814"/>
    <path d="m31.416 40.12-0.121 0.121"/>
    <path d="m31.295 40.241-0.1209 0.0604"/>
   </g>
   <text x="30.8417" y="43.6880" font-size="1.6933" opacity="0" text-anchor="middle" lengthAdjust="spacingAndGlyphs" textLength="2.4855">1u</text>
   <g class="stroked-text">
    <path d="m30.63 43.52h-0.7257"/>
    <path d="m30.267 43.52v-1.27"/>
    <path d="m30.267 42.25-0.1209 0.1814"/>
    <path d="m30.146 42.431-0.121 0.121"/>
    <path d="m30.025 42.552-0.1209 0.0604"/>
    <path d="m31.719 42.673v0.8467"/>
    <path d="m31.174 42.673v0.6652"/>
    <path d="m31.174 43.338 0.0605 0.121"/>
    <path d="m31.235 43.459 0.121 0.0605"/>
    <path d="m31.356 43.52h0.1814"/>
    <path d="m31.537 43.52 0.1209-0.0605"/>
    <path d="m31.658 43.459 0.0605-0.0605"/>
   </g>
  </g>
  <g fill-opacity="0" stroke="#000" stroke-linecap="round" stroke-linejoin="round" stroke-width=".254">
   <rect x="38.354" y="39.37" width="2.032" height="5.08" rx="0"/>
  </g>
  <g fill-opacity="0" stroke="#000" stroke-linecap="round" stroke-linejoin="round" stroke-width=".1524">
   <path d="m39.37 39.37v-1.27"/>
   <path d="m39.37 44.45v1.27"/>
   <text x="42.4592" y="41.3766" font-size="1.6933" opacity="0" text-anchor="middle" lengthAdjust="spacingAndGlyphs" textLength="2.6065">R2</text>
   <g class="stroked-text">
    <path d="m42.248 41.208-0.4233-0.6048"/>
    <path d="m41.522 41.208v-1.27"/>
    <path d="m41.522 39.938h0.4838"/>
    <path d="m42.006 39.938 0.121 0.0605"/>
    <path d="m42.127 39.999 0.0605 0.0604"/>
    <path d="m42.187 40.059 0.0604 0.121"/>
    <path d="m42.248 40.18v0.1814"/>
    <path d="m42.248 40.362-0.0604 0.121"/>
    <path d="m42.187 40.482-0.0605 0.0604"/>
    <path d="m42.127 40.543-0.121 0.0605"/>
    <path d="m42.006 40.603h-0.4838"/>
    <path d="m42.731 40.059 0.0604-0.0604"/>
    <path d="m42.792 39.999 0.121-0.0605"/>
    <path d="m42.913 39.938h0.3024"/>
    <path d="m43.215 39.938 0.1209 0.0605"/>
    <path d="m43.336 39.999 0.0605 0.0604"/>
    <path d="m43.397 40.059 0.0605 0.121"/>
    <path d="m43.457 40.18v0.1209"/>
    <path d="m43.457 40.301-0.0605 0.1815"/>
    <path d="m43.397 40.482-0.7257 0.7257"/>
    <path d="m42.671 41.208h0.7862"/>
   </g>
   <text x="43.1547" y="43.6880" font-size="1.6933" opacity="0" text-anchor="middle" lengthAdjust="spacingAndGlyphs" textLength="3.9974">4M7</text>
   <g class="stroked-text">
    <path d="m42.066 42.673v0.8467"/>
    <path d="m41.764 42.189-0.3023 0.9071"/>
    <path d="m41.461 43.096h0.7861"/>
    <path d="m42.731 43.52v-1.27"/>
    <path d="m42.731 42.25 0.4234 0.9071"/>
    <path d="m43.155 43.157 0.4233-0.9071"/>
    <path d="m43.578 42.25v1.27"/>
    <path d="m44.062 42.25h0.8466"/>
    <path d="m44.908 42.25-0.5442 1.27"/>
   </g>
  </g>
  <g fill-opacity="0" stroke="#000" stroke-linecap="round" stroke-linejoin="round" stroke-width=".254">
   <rect x="71.12" y="30.734" width="5.08" height="2.032" rx="0"/>
  </g>
  <g fill-opacity="0" stroke="#000" stroke-linecap="round" stroke-linejoin="round" stroke-width=".1524">
   <path d="m76.2 31.75h1.27"/>
   <path d="m71.12 31.75h-1.27"/>
   <text x="73.6600" y="27.1272" font-size="1.6933" opacity="0" text-anchor="middle" lengthAdjust="spacingAndGlyphs" textLength="2.6065">R5</text>
   <g class="stroked-text">
    <path d="m73.448 26.959-0.4233-0.6048"/>
    <path d="m72.723 26.959v-1.27"/>
    <path d="m72.723 25.689h0.4838"/>
    <path d="m73.206 25.689 0.121 0.0605"/>
    <path d="m73.327 25.749 0.0605 0.0604"/>
    <path d="m73.388 25.81 0.0604 0.121"/>
    <path d="m73.448 25.931v0.1814"/>
    <path d="m73.448 26.112-0.0604 0.121"/>
    <path d="m73.388 26.233-0.0605 0.0604"/>
    <path d="m73.327 26.294-0.121 0.0605"/>
    <path d="m73.206 26.354h-0.4838"/>
    <path d="m74.597 25.689h-0.6048"/>
    <path d="m73.993 25.689-0.0604 0.6047"/>
    <path d="m73.932 26.294 0.0604-0.0604"/>
    <path d="m73.993 26.233 0.121-0.0605"/>
    <path d="m74.114 26.173h0.3024"/>
    <path d="m74.416 26.173 0.1209 0.0605"/>
    <path d="m74.537 26.233 0.0605 0.0604"/>
    <path d="m74.597 26.294 0.0605 0.121"/>
    <path d="m74.658 26.414v0.3024"/>
    <path d="m74.658 26.717-0.0605 0.1209"/>
    <path d="m74.597 26.838-0.0605 0.0605"/>
    <path d="m74.537 26.898-0.1209 0.0605"/>
    <path d="m74.416 26.959h-0.3024"/>
    <path d="m74.114 26.959-0.121-0.0605"/>
    <path d="m73.993 26.898-0.0604-0.0605"/>
   </g>
   <text x="73.6600" y="29.4386" font-size="1.6933" opacity="0" text-anchor="middle" lengthAdjust="spacingAndGlyphs" textLength="4.7836">470k</text>
   <g class="stroked-text">
    <path d="m72.178 28.424v0.8467"/>
    <path d="m71.876 27.94-0.3023 0.9071"/>
    <path d="m71.574 28.847h0.7861"/>
    <path d="m72.723 28h0.8466"/>
    <path d="m73.569 28-0.5442 1.27"/>
    <path d="m74.295 28h0.121"/>
    <path d="m74.416 28 0.1209 0.0605"/>
    <path d="m74.537 28.061 0.0605 0.0604"/>
    <path d="m74.597 28.121 0.0605 0.121"/>
    <path d="m74.658 28.242 0.0605 0.2419"/>
    <path d="m74.718 28.484v0.3024"/>
    <path d="m74.718 28.786-0.0605 0.2419"/>
    <path d="m74.658 29.028-0.0605 0.1209"/>
    <path d="m74.597 29.149-0.0605 0.0605"/>
    <path d="m74.537 29.21-0.1209 0.0605"/>
    <path d="m74.416 29.27h-0.121"/>
    <path d="m74.295 29.27-0.1209-0.0605"/>
    <path d="m74.174 29.21-0.0605-0.0605"/>
    <path d="m74.114 29.149-0.0605-0.1209"/>
    <path d="m74.053 29.028-0.0604-0.2419"/>
    <path d="m73.993 28.786v-0.3024"/>
    <path d="m73.993 28.484 0.0604-0.2419"/>
    <path d="m74.053 28.242 0.0605-0.121"/>
    <path d="m74.114 28.121 0.0605-0.0604"/>
    <path d="m74.174 28.061 0.1209-0.0605"/>
    <path d="m75.262 29.27v-1.27"/>
    <path d="m75.384 28.786 0.3628 0.4838"/>
    <path d="m75.746 28.424-0.4838 0.4838"/>
   </g>
  </g>
  <g fill-opacity="0" stroke="#000" stroke-linecap="round" stroke-linejoin="round" stroke-width=".254">
   <rect x="61.214" y="11.43" width="2.032" height="5.08" rx="0"/>
  </g>
  <g fill-opacity="0" stroke="#000" stroke-linecap="round" stroke-linejoin="round" stroke-width=".1524">
   <path d="m62.23 11.43v-1.27"/>
   <path d="m62.23 16.51v1.27"/>
   <text x="65.3192" y="13.4366" font-size="1.6933" opacity="0" text-anchor="middle" lengthAdjust="spacingAndGlyphs" textLength="2.6065">R4</text>
   <g class="stroked-text">
    <path d="m65.108 13.268-0.4233-0.6048"/>
    <path d="m64.382 13.268v-1.27"/>
    <path d="m64.382 11.998h0.4838"/>
    <path d="m64.866 11.998 0.121 0.0605"/>
    <path d="m64.987 12.059 0.0605 0.0604"/>
    <path d="m65.047 12.119 0.0604 0.121"/>
    <path d="m65.108 12.24v0.1814"/>
    <path d="m65.108 12.422-0.0604 0.121"/>
    <path d="m65.047 12.542-0.0605 0.0604"/>
    <path d="m64.987 12.603-0.121 0.0605"/>
    <path d="m64.866 12.663h-0.4838"/>
    <path d="m66.196 12.422v0.8467"/>
    <path d="m65.894 11.938-0.3023 0.9071"/>
    <path d="m65.591 12.845h0.7861"/>
   </g>
   <text x="65.8030" y="15.7480" font-size="1.6933" opacity="0" text-anchor="middle" lengthAdjust="spacingAndGlyphs" textLength="3.5741">10k</text>
   <g class="stroked-text">
    <path d="m65.047 15.58h-0.7257"/>
    <path d="m64.684 15.58v-1.27"/>
    <path d="m64.684 14.31-0.1209 0.1814"/>
    <path d="m64.563 14.491-0.121 0.121"/>
    <path d="m64.442 14.612-0.1209 0.0604"/>
    <path d="m65.833 14.31h0.121"/>
    <path d="m65.954 14.31 0.1209 0.0605"/>
    <path d="m66.075 14.37 0.0605 0.0604"/>
    <path d="m66.136 14.43 0.0605 0.121"/>
    <path d="m66.196 14.552 0.0605 0.2419"/>
    <path d="m66.257 14.793v0.3024"/>
    <path d="m66.257 15.096-0.0605 0.2419"/>
    <path d="m66.196 15.338-0.0605 0.1209"/>
    <path d="m66.136 15.459-0.0605 0.0605"/>
    <path d="m66.075 15.519-0.1209 0.0605"/>
    <path d="m65.954 15.58h-0.121"/>
    <path d="m65.833 15.58-0.1209-0.0605"/>
    <path d="m65.712 15.519-0.0605-0.0605"/>
    <path d="m65.652 15.459-0.0605-0.1209"/>
    <path d="m65.591 15.338-0.0604-0.2419"/>
    <path d="m65.531 15.096v-0.3024"/>
    <path d="m65.531 14.793 0.0604-0.2419"/>
    <path d="m65.591 14.552 0.0605-0.121"/>
    <path d="m65.652 14.43 0.0605-0.0604"/>
    <path d="m65.712 14.37 0.1209-0.0605"/>
    <path d="m66.801 15.58v-1.27"/>
    <path d="m66.922 15.096 0.3628 0.4838"/>
    <path d="m67.285 14.733-0.4838 0.4838"/>
   </g>
  </g>
  <path d="m49.53 22.86h2.54" fill="none" stroke="#000" stroke-linecap="round" stroke-linejoin="round" stroke-width=".1524"/>
  <g fill="none" fill-opacity="0" stroke="#000" stroke-linecap="round" stroke-linejoin="round" stroke-width=".254">
   <path d="m49.53 24.13v-2.54l2.54 1.27z"/>
   <path d="m52.705 23.495v0.635h-0.635v-2.54h-0.635v0.635"/>
  </g>
  <g fill-opacity="0" stroke="#000" stroke-linecap="round" stroke-linejoin="round" stroke-width=".1524">
   <path d="m52.07 22.86h2.54"/>
   <path d="m49.53 22.86h-2.54"/>
   <text x="51.1174" y="18.5252" font-size="1.6933" opacity="0" text-anchor="middle" lengthAdjust="spacingAndGlyphs" textLength="2.6065">D1</text>
   <g class="stroked-text">
    <path d="m50.18 18.357v-1.27"/>
    <path d="m50.18 17.087h0.3024"/>
    <path d="m50.482 17.087 0.1814 0.0605"/>
    <path d="m50.664 17.147 0.121 0.1209"/>
    <path d="m50.785 17.268 0.0605 0.121"/>
    <path d="m50.845 17.389 0.0604 0.2419"/>
    <path d="m50.906 17.631v0.1814"/>
    <path d="m50.906 17.812-0.0604 0.2419"/>
    <path d="m50.845 18.054-0.0605 0.1209"/>
    <path d="m50.785 18.175-0.121 0.121"/>
    <path d="m50.664 18.296-0.1814 0.0605"/>
    <path d="m50.482 18.357h-0.3024"/>
    <path d="m52.115 18.357h-0.7257"/>
    <path d="m51.752 18.357v-1.27"/>
    <path d="m51.752 17.087-0.1209 0.1814"/>
    <path d="m51.632 17.268-0.121 0.121"/>
    <path d="m51.51 17.389-0.1209 0.0604"/>
   </g>
   <text x="51.1175" y="21.0621" font-size="1.6933" opacity="0" text-anchor="middle" lengthAdjust="spacingAndGlyphs" textLength="8.9564">MBR0540</text>
   <g class="stroked-text">
    <path d="m47.005 20.894v-1.27"/>
    <path d="m47.005 19.624 0.4234 0.9071"/>
    <path d="m47.428 20.531 0.4233-0.9071"/>
    <path d="m47.852 19.624v1.27"/>
    <path d="m48.88 20.228 0.1814 0.0605"/>
    <path d="m49.061 20.289 0.0605 0.0605"/>
    <path d="m49.122 20.349 0.0604 0.1209"/>
    <path d="m49.182 20.47v0.1815"/>
    <path d="m49.182 20.652-0.0604 0.1209"/>
    <path d="m49.122 20.773-0.0605 0.0605"/>
    <path d="m49.061 20.833-0.121 0.0605"/>
    <path d="m48.94 20.894h-0.4838"/>
    <path d="m48.456 20.894v-1.27"/>
    <path d="m48.456 19.624h0.4234"/>
    <path d="m48.88 19.624 0.1209 0.0605"/>
    <path d="m49.001 19.684 0.0605 0.0604"/>
    <path d="m49.061 19.745 0.0605 0.121"/>
    <path d="m49.122 19.866v0.1209"/>
    <path d="m49.122 19.986-0.0605 0.121"/>
    <path d="m49.061 20.108-0.0605 0.0605"/>
    <path d="m49.001 20.168-0.1209 0.0604"/>
    <path d="m48.88 20.228h-0.4234"/>
    <path d="m50.452 20.894-0.4233-0.6048"/>
    <path d="m49.726 20.894v-1.27"/>
    <path d="m49.726 19.624h0.4838"/>
    <path d="m50.21 19.624 0.121 0.0605"/>
    <path d="m50.331 19.684 0.0605 0.0604"/>
    <path d="m50.392 19.745 0.0604 0.121"/>
    <path d="m50.452 19.866v0.1814"/>
    <path d="m50.452 20.047-0.0604 0.121"/>
    <path d="m50.392 20.168-0.0605 0.0604"/>
    <path d="m50.331 20.228-0.121 0.0605"/>
    <path d="m50.21 20.289h-0.4838"/>
    <path d="m51.238 19.624h0.121"/>
    <path d="m51.359 19.624 0.1209 0.0605"/>
    <path d="m51.48 19.684 0.0605 0.0604"/>
    <path d="m51.541 19.745 0.0605 0.121"/>
    <path d="m51.601 19.866 0.0605 0.2419"/>
    <path d="m51.662 20.108v0.3024"/>
    <path d="m51.662 20.41-0.0605 0.2419"/>
    <path d="m51.601 20.652-0.0605 0.1209"/>
    <path d="m51.541 20.773-0.0605 0.0605"/>
    <path d="m51.48 20.833-0.1209 0.0605"/>
    <path d="m51.359 20.894h-0.121"/>
    <path d="m51.238 20.894-0.1209-0.0605"/>
    <path d="m51.118 20.833-0.0605-0.0605"/>
    <path d="m51.057 20.773-0.0605-0.1209"/>
    <path d="m50.996 20.652-0.0604-0.2419"/>
    <path d="m50.936 20.41v-0.3024"/>
    <path d="m50.936 20.108 0.0604-0.2419"/>
    <path d="m50.996 19.866 0.0605-0.121"/>
    <path d="m51.057 19.745 0.0605-0.0604"/>
    <path d="m51.118 19.684 0.1209-0.0605"/>
    <path d="m52.811 19.624h-0.6048"/>
    <path d="m52.206 19.624-0.0604 0.6047"/>
    <path d="m52.146 20.228 0.0604-0.0604"/>
    <path d="m52.206 20.168 0.121-0.0605"/>
    <path d="m52.327 20.108h0.3024"/>
    <path d="m52.629 20.108 0.1209 0.0605"/>
    <path d="m52.75 20.168 0.0605 0.0604"/>
    <path d="m52.811 20.228 0.0605 0.121"/>
    <path d="m52.871 20.349v0.3024"/>
    <path d="m52.871 20.652-0.0605 0.1209"/>
    <path d="m52.811 20.773-0.0605 0.0605"/>
    <path d="m52.75 20.833-0.1209 0.0605"/>
    <path d="m52.629 20.894h-0.3024"/>
    <path d="m52.327 20.894-0.121-0.0605"/>
    <path d="m52.206 20.833-0.0604-0.0605"/>
    <path d="m53.96 20.047v0.8467"/>
    <path d="m53.657 19.563-0.3023 0.9071"/>
    <path d="m53.355 20.47h0.7861"/>
    <path d="m54.867 19.624h0.121"/>
    <path d="m54.988 19.624 0.1209 0.0605"/>
    <path d="m55.109 19.684 0.0605 0.0604"/>
    <path d="m55.169 19.745 0.0605 0.121"/>
    <path d="m55.23 19.866 0.0605 0.2419"/>
    <path d="m55.29 20.108v0.3024"/>
    <path d="m55.29 20.41-0.0605 0.2419"/>
    <path d="m55.23 20.652-0.0605 0.1209"/>
    <path d="m55.169 20.773-0.0605 0.0605"/>
    <path d="m55.109 20.833-0.1209 0.0605"/>
    <path d="m54.988 20.894h-0.121"/>
    <path d="m54.867 20.894-0.1209-0.0605"/>
    <path d="m54.746 20.833-0.0605-0.0605"/>
    <path d="m54.686 20.773-0.0605-0.1209"/>
    <path d="m54.625 20.652-0.0604-0.2419"/>
    <path d="m54.565 20.41v-0.3024"/>
    <path d="m54.565 20.108 0.0604-0.2419"/>
    <path d="m54.625 19.866 0.0605-0.121"/>
    <path d="m54.686 19.745 0.0605-0.0604"/>
    <path d="m54.746 19.684 0.1209-0.0605"/>
   </g>
  </g>
  <path d="m74.93 22.86h-2.54" fill="none" stroke="#000" stroke-linecap="round" stroke-linejoin="round" stroke-width=".1524"/>
  <g fill="none" fill-opacity="0" stroke="#000" stroke-linecap="round" stroke-linejoin="round" stroke-width=".254">
   <path d="m74.93 24.13v-2.54l-2.54 1.27z"/>
   <path d="m71.755 23.495v0.635h0.635v-2.54h0.635v0.635"/>
  </g>
  <g fill-opacity="0" stroke="#000" stroke-linecap="round" stroke-linejoin="round" stroke-width=".1524">
   <path d="m72.39 22.86h-2.54"/>
   <path d="m74.93 22.86h2.54"/>
   <text x="73.3425" y="18.5252" font-size="1.6933" opacity="0" text-anchor="middle" lengthAdjust="spacingAndGlyphs" textLength="2.6065">D4</text>
   <g class="stroked-text">
    <path d="m72.405 18.357v-1.27"/>
    <path d="m72.405 17.087h0.3024"/>
    <path d="m72.708 17.087 0.1814 0.0605"/>
    <path d="m72.889 17.147 0.121 0.1209"/>
    <path d="m73.01 17.268 0.0605 0.121"/>
    <path d="m73.07 17.389 0.0604 0.2419"/>
    <path d="m73.131 17.631v0.1814"/>
    <path d="m73.131 17.812-0.0604 0.2419"/>
    <path d="m73.07 18.054-0.0605 0.1209"/>
    <path d="m73.01 18.175-0.121 0.121"/>
    <path d="m72.889 18.296-0.1814 0.0605"/>
    <path d="m72.708 18.357h-0.3024"/>
    <path d="m74.219 17.51v0.8467"/>
    <path d="m73.917 17.026-0.3023 0.9071"/>
    <path d="m73.615 17.933h0.7861"/>
   </g>
   <text x="73.3425" y="21.0621" font-size="1.6933" opacity="0" text-anchor="middle" lengthAdjust="spacingAndGlyphs" textLength="8.9564">MBR0540</text>
   <g class="stroked-text">
    <path d="m69.23 20.894v-1.27"/>
    <path d="m69.23 19.624 0.4234 0.9071"/>
    <path d="m69.654 20.531 0.4233-0.9071"/>
    <path d="m70.077 19.624v1.27"/>
    <path d="m71.105 20.228 0.1814 0.0605"/>
    <path d="m71.286 20.289 0.0605 0.0605"/>
    <path d="m71.347 20.349 0.0604 0.1209"/>
    <path d="m71.407 20.47v0.1815"/>
    <path d="m71.407 20.652-0.0604 0.1209"/>
    <path d="m71.347 20.773-0.0605 0.0605"/>
    <path d="m71.286 20.833-0.121 0.0605"/>
    <path d="m71.165 20.894h-0.4838"/>
    <path d="m70.682 20.894v-1.27"/>
    <path d="m70.682 19.624h0.4234"/>
    <path d="m71.105 19.624 0.1209 0.0605"/>
    <path d="m71.226 19.684 0.0605 0.0604"/>
    <path d="m71.286 19.745 0.0605 0.121"/>
    <path d="m71.347 19.866v0.1209"/>
    <path d="m71.347 19.986-0.0605 0.121"/>
    <path d="m71.286 20.108-0.0605 0.0605"/>
    <path d="m71.226 20.168-0.1209 0.0604"/>
    <path d="m71.105 20.228h-0.4234"/>
    <path d="m72.677 20.894-0.4233-0.6048"/>
    <path d="m71.952 20.894v-1.27"/>
    <path d="m71.952 19.624h0.4838"/>
    <path d="m72.435 19.624 0.121 0.0605"/>
    <path d="m72.556 19.684 0.0605 0.0604"/>
    <path d="m72.617 19.745 0.0604 0.121"/>
    <path d="m72.677 19.866v0.1814"/>
    <path d="m72.677 20.047-0.0604 0.121"/>
    <path d="m72.617 20.168-0.0605 0.0604"/>
    <path d="m72.556 20.228-0.121 0.0605"/>
    <path d="m72.435 20.289h-0.4838"/>
    <path d="m73.463 19.624h0.121"/>
    <path d="m73.584 19.624 0.1209 0.0605"/>
    <path d="m73.705 19.684 0.0605 0.0604"/>
    <path d="m73.766 19.745 0.0605 0.121"/>
    <path d="m73.826 19.866 0.0605 0.2419"/>
    <path d="m73.887 20.108v0.3024"/>
    <path d="m73.887 20.41-0.0605 0.2419"/>
    <path d="m73.826 20.652-0.0605 0.1209"/>
    <path d="m73.766 20.773-0.0605 0.0605"/>
    <path d="m73.705 20.833-0.1209 0.0605"/>
    <path d="m73.584 20.894h-0.121"/>
    <path d="m73.463 20.894-0.1209-0.0605"/>
    <path d="m73.342 20.833-0.0605-0.0605"/>
    <path d="m73.282 20.773-0.0605-0.1209"/>
    <path d="m73.222 20.652-0.0604-0.2419"/>
    <path d="m73.161 20.41v-0.3024"/>
    <path d="m73.161 20.108 0.0604-0.2419"/>
    <path d="m73.222 19.866 0.0605-0.121"/>
    <path d="m73.282 19.745 0.0605-0.0604"/>
    <path d="m73.342 19.684 0.1209-0.0605"/>
    <path d="m75.036 19.624h-0.6048"/>
    <path d="m74.431 19.624-0.0604 0.6047"/>
    <path d="m74.371 20.228 0.0604-0.0604"/>
    <path d="m74.431 20.168 0.121-0.0605"/>
    <path d="m74.552 20.108h0.3024"/>
    <path d="m74.854 20.108 0.1209 0.0605"/>
    <path d="m74.975 20.168 0.0605 0.0604"/>
    <path d="m75.036 20.228 0.0605 0.121"/>
    <path d="m75.096 20.349v0.3024"/>
    <path d="m75.096 20.652-0.0605 0.1209"/>
    <path d="m75.036 20.773-0.0605 0.0605"/>
    <path d="m74.975 20.833-0.1209 0.0605"/>
    <path d="m74.854 20.894h-0.3024"/>
    <path d="m74.552 20.894-0.121-0.0605"/>
    <path d="m74.431 20.833-0.0604-0.0605"/>
    <path d="m76.185 20.047v0.8467"/>
    <path d="m75.882 19.563-0.3023 0.9071"/>
    <path d="m75.58 20.47h0.7861"/>
    <path d="m77.092 19.624h0.121"/>
    <path d="m77.213 19.624 0.1209 0.0605"/>
    <path d="m77.334 19.684 0.0605 0.0604"/>
    <path d="m77.394 19.745 0.0605 0.121"/>
    <path d="m77.455 19.866 0.0605 0.2419"/>
    <path d="m77.515 20.108v0.3024"/>
    <path d="m77.515 20.41-0.0605 0.2419"/>
    <path d="m77.455 20.652-0.0605 0.1209"/>
    <path d="m77.394 20.773-0.0605 0.0605"/>
    <path d="m77.334 20.833-0.1209 0.0605"/>
    <path d="m77.213 20.894h-0.121"/>
    <path d="m77.092 20.894-0.1209-0.0605"/>
    <path d="m76.971 20.833-0.0605-0.0605"/>
    <path d="m76.91 20.773-0.0605-0.1209"/>
    <path d="m76.85 20.652-0.0604-0.2419"/>
    <path d="m76.79 20.41v-0.3024"/>
    <path d="m76.79 20.108 0.0604-0.2419"/>
    <path d="m76.85 19.866 0.0605-0.121"/>
    <path d="m76.91 19.745 0.0605-0.0604"/>
    <path d="m76.971 19.684 0.1209-0.0605"/>
   </g>
  </g>
  <g fill-opacity="0" stroke="#000" stroke-linecap="round" stroke-linejoin="round" stroke-width=".254">
   <rect x="48.26" y="30.734" width="5.08" height="2.032" rx="0"/>
  </g>
  <g fill-opacity="0" stroke="#000" stroke-linecap="round" stroke-linejoin="round" stroke-width=".1524">
   <path d="m53.34 31.75h1.27"/>
   <path d="m48.26 31.75h-1.27"/>
   <text x="50.8000" y="27.1272" font-size="1.6933" opacity="0" text-anchor="middle" lengthAdjust="spacingAndGlyphs" textLength="2.6065">R3</text>
   <g class="stroked-text">
    <path d="m50.588 26.959-0.4233-0.6048"/>
    <path d="m49.863 26.959v-1.27"/>
    <path d="m49.863 25.689h0.4838"/>
    <path d="m50.346 25.689 0.121 0.0605"/>
    <path d="m50.467 25.749 0.0605 0.0604"/>
    <path d="m50.528 25.81 0.0604 0.121"/>
    <path d="m50.588 25.931v0.1814"/>
    <path d="m50.588 26.112-0.0604 0.121"/>
    <path d="m50.528 26.233-0.0605 0.0604"/>
    <path d="m50.467 26.294-0.121 0.0605"/>
    <path d="m50.346 26.354h-0.4838"/>
    <path d="m51.012 25.689h0.7862"/>
    <path d="m51.798 25.689-0.4234 0.4838"/>
    <path d="m51.374 26.173h0.1815"/>
    <path d="m51.556 26.173 0.1209 0.0605"/>
    <path d="m51.677 26.233 0.0605 0.0604"/>
    <path d="m51.737 26.294 0.0605 0.121"/>
    <path d="m51.798 26.414v0.3024"/>
    <path d="m51.798 26.717-0.0605 0.1209"/>
    <path d="m51.737 26.838-0.0605 0.0605"/>
    <path d="m51.677 26.898-0.1209 0.0605"/>
    <path d="m51.556 26.959h-0.3629"/>
    <path d="m51.193 26.959-0.1209-0.0605"/>
    <path d="m51.072 26.898-0.0605-0.0605"/>
   </g>
   <text x="50.8000" y="29.4386" font-size="1.6933" opacity="0" text-anchor="middle" lengthAdjust="spacingAndGlyphs" textLength="4.7836">470k</text>
   <g class="stroked-text">
    <path d="m49.318 28.424v0.8467"/>
    <path d="m49.016 27.94-0.3023 0.9071"/>
    <path d="m48.714 28.847h0.7861"/>
    <path d="m49.863 28h0.8466"/>
    <path d="m50.709 28-0.5442 1.27"/>
    <path d="m51.435 28h0.121"/>
    <path d="m51.556 28 0.1209 0.0605"/>
    <path d="m51.677 28.061 0.0605 0.0604"/>
    <path d="m51.737 28.121 0.0605 0.121"/>
    <path d="m51.798 28.242 0.0605 0.2419"/>
    <path d="m51.858 28.484v0.3024"/>
    <path d="m51.858 28.786-0.0605 0.2419"/>
    <path d="m51.798 29.028-0.0605 0.1209"/>
    <path d="m51.737 29.149-0.0605 0.0605"/>
    <path d="m51.677 29.21-0.1209 0.0605"/>
    <path d="m51.556 29.27h-0.121"/>
    <path d="m51.435 29.27-0.1209-0.0605"/>
    <path d="m51.314 29.21-0.0605-0.0605"/>
    <path d="m51.254 29.149-0.0605-0.1209"/>
    <path d="m51.193 29.028-0.0604-0.2419"/>
    <path d="m51.133 28.786v-0.3024"/>
    <path d="m51.133 28.484 0.0604-0.2419"/>
    <path d="m51.193 28.242 0.0605-0.121"/>
    <path d="m51.254 28.121 0.0605-0.0604"/>
    <path d="m51.314 28.061 0.1209-0.0605"/>
    <path d="m52.402 29.27v-1.27"/>
    <path d="m52.524 28.786 0.3628 0.4838"/>
    <path d="m52.886 28.424-0.4838 0.4838"/>
   </g>
  </g>
 </g>
 <g fill-opacity="0" stroke="#000" stroke-linecap="round" stroke-linejoin="round" stroke-width=".1524">
  <text x="3.8100" y="4.7307" font-size="1.6933" opacity="0" lengthAdjust="spacingAndGlyphs" textLength="4.1184">~{PWR}</text>
  <g class="stroked-text">
   <path d="m4.1123 4.4543v-1.27"/>
   <path d="m4.1123 3.1843h0.4838"/>
   <path d="m4.5961 3.1843 0.121 0.0605"/>
   <path d="m4.7171 3.2448 0.0605 0.0604"/>
   <path d="m4.7776 3.3052 0.0604 0.121"/>
   <path d="m4.838 3.4262v0.1814"/>
   <path d="m4.838 3.6076-0.0604 0.121"/>
   <path d="m4.7776 3.7286-0.0605 0.0604"/>
   <path d="m4.7171 3.789-0.121 0.0605"/>
   <path d="m4.5961 3.8495h-0.4838"/>
   <path d="m5.2614 3.1843 0.3024 1.27"/>
   <path d="m5.5638 4.4543 0.2419-0.9072"/>
   <path d="m5.8057 3.5471 0.2419 0.9072"/>
   <path d="m6.0476 4.4543 0.3024-1.27"/>
   <path d="m7.5594 4.4543-0.4233-0.6048"/>
   <path d="m6.8337 4.4543v-1.27"/>
   <path d="m6.8337 3.1843h0.4838"/>
   <path d="m7.3175 3.1843 0.121 0.0605"/>
   <path d="m7.4385 3.2448 0.0605 0.0604"/>
   <path d="m7.499 3.3052 0.0604 0.121"/>
   <path d="m7.5594 3.4262v0.1814"/>
   <path d="m7.5594 3.6076-0.0604 0.121"/>
   <path d="m7.499 3.7286-0.0605 0.0604"/>
   <path d="m7.4385 3.789-0.121 0.0605"/>
   <path d="m7.3175 3.8495h-0.4838"/>
   <path d="m3.937 2.7368h3.7374"/>
  </g>
  <text x="3.8100" y="51.7207" font-size="1.6933" opacity="0" lengthAdjust="spacingAndGlyphs" textLength="3.9975">GND</text>
  <g class="stroked-text">
   <path d="m4.7776 50.235-0.121-0.0605"/>
   <path d="m4.6566 50.174h-0.1814"/>
   <path d="m4.4752 50.174-0.1814 0.0605"/>
   <path d="m4.2938 50.235-0.121 0.1209"/>
   <path d="m4.1728 50.356-0.0605 0.121"/>
   <path d="m4.1123 50.477-0.0604 0.2419"/>
   <path d="m4.0519 50.719v0.1814"/>
   <path d="m4.0519 50.9 0.0604 0.2419"/>
   <path d="m4.1123 51.142 0.0605 0.1209"/>
   <path d="m4.1728 51.263 0.121 0.121"/>
   <path d="m4.2938 51.384 0.1814 0.0605"/>
   <path d="m4.4752 51.444h0.1209"/>
   <path d="m4.5961 51.444 0.1815-0.0605"/>
   <path d="m4.7776 51.384 0.0604-0.0605"/>
   <path d="m4.838 51.323v-0.4233"/>
   <path d="m4.838 50.9h-0.2419"/>
   <path d="m5.3823 51.444v-1.27"/>
   <path d="m5.3823 50.174 0.7257 1.27"/>
   <path d="m6.108 51.444v-1.27"/>
   <path d="m6.7128 51.444v-1.27"/>
   <path d="m6.7128 50.174h0.3024"/>
   <path d="m7.0152 50.174 0.1814 0.0605"/>
   <path d="m7.1966 50.235 0.121 0.1209"/>
   <path d="m7.3176 50.356 0.0605 0.121"/>
   <path d="m7.3781 50.477 0.0604 0.2419"/>
   <path d="m7.4385 50.719v0.1814"/>
   <path d="m7.4385 50.9-0.0604 0.2419"/>
   <path d="m7.3781 51.142-0.0605 0.1209"/>
   <path d="m7.3176 51.263-0.121 0.121"/>
   <path d="m7.1966 51.384-0.1814 0.0605"/>
   <path d="m7.0152 51.444h-0.3024"/>
  </g>
  <text x="120.6500" y="51.7207" font-size="1.6933" opacity="0" text-anchor="end" lengthAdjust="spacingAndGlyphs" textLength="3.9975">GND</text>
  <g class="stroked-text">
   <path d="m117.75 50.235-0.121-0.0605"/>
   <path d="m117.63 50.174h-0.1814"/>
   <path d="m117.44 50.174-0.1814 0.0605"/>
   <path d="m117.26 50.235-0.121 0.1209"/>
   <path d="m117.14 50.356-0.0605 0.121"/>
   <path d="m117.08 50.477-0.0604 0.2419"/>
   <path d="m117.02 50.719v0.1814"/>
   <path d="m117.02 50.9 0.0604 0.2419"/>
   <path d="m117.08 51.142 0.0605 0.1209"/>
   <path d="m117.14 51.263 0.121 0.121"/>
   <path d="m117.26 51.384 0.1814 0.0605"/>
   <path d="m117.44 51.444h0.1209"/>
   <path d="m117.57 51.444 0.1815-0.0605"/>
   <path d="m117.75 51.384 0.0604-0.0605"/>
   <path d="m117.81 51.323v-0.4233"/>
   <path d="m117.81 50.9h-0.2419"/>
   <path d="m118.35 51.444v-1.27"/>
   <path d="m118.35 50.174 0.7257 1.27"/>
   <path d="m119.08 51.444v-1.27"/>
   <path d="m119.68 51.444v-1.27"/>
   <path d="m119.68 50.174h0.3024"/>
   <path d="m119.98 50.174 0.1814 0.0605"/>
   <path d="m120.17 50.235 0.121 0.1209"/>
   <path d="m120.29 50.356 0.0605 0.121"/>
   <path d="m120.35 50.477 0.0604 0.2419"/>
   <path d="m120.41 50.719v0.1814"/>
   <path d="m120.41 50.9-0.0604 0.2419"/>
   <path d="m120.35 51.142-0.0605 0.1209"/>
   <path d="m120.29 51.263-0.121 0.121"/>
   <path d="m120.17 51.384-0.1814 0.0605"/>
   <path d="m119.98 51.444h-0.3024"/>
  </g>
  <text x="52.0700" y="4.7307" font-size="1.6933" opacity="0" lengthAdjust="spacingAndGlyphs" textLength="3.8765">RXD</text>
  <g class="stroked-text">
   <path d="m53.098 4.4543-0.4233-0.6048"/>
   <path d="m52.372 4.4543v-1.27"/>
   <path d="m52.372 3.1843h0.4838"/>
   <path d="m52.856 3.1843 0.121 0.0605"/>
   <path d="m52.977 3.2448 0.0605 0.0604"/>
   <path d="m53.038 3.3052 0.0604 0.121"/>
   <path d="m53.098 3.4262v0.1814"/>
   <path d="m53.098 3.6076-0.0604 0.121"/>
   <path d="m53.038 3.7286-0.0605 0.0604"/>
   <path d="m52.977 3.789-0.121 0.0605"/>
   <path d="m52.856 3.8495h-0.4838"/>
   <path d="m53.521 3.1843 0.8466 1.27"/>
   <path d="m54.368 3.1843-0.8466 1.27"/>
   <path d="m54.852 4.4543v-1.27"/>
   <path d="m54.852 3.1843h0.3024"/>
   <path d="m55.154 3.1843 0.1814 0.0605"/>
   <path d="m55.336 3.2448 0.121 0.1209"/>
   <path d="m55.457 3.3657 0.0605 0.121"/>
   <path d="m55.517 3.4867 0.0604 0.2419"/>
   <path d="m55.578 3.7286v0.1814"/>
   <path d="m55.578 3.91-0.0604 0.2419"/>
   <path d="m55.517 4.1519-0.0605 0.1209"/>
   <path d="m55.457 4.2728-0.121 0.121"/>
   <path d="m55.336 4.3938-0.1814 0.0605"/>
   <path d="m55.154 4.4543h-0.3024"/>
  </g>
  <text x="120.6500" y="4.7307" font-size="1.6933" opacity="0" text-anchor="end" lengthAdjust="spacingAndGlyphs" textLength="3.5741">~{RST}</text>
  <g class="stroked-text">
   <path d="m118.23 4.4543-0.4233-0.6048"/>
   <path d="m117.51 4.4543v-1.27"/>
   <path d="m117.51 3.1843h0.4838"/>
   <path d="m117.99 3.1843 0.121 0.0605"/>
   <path d="m118.11 3.2448 0.0605 0.0604"/>
   <path d="m118.17 3.3052 0.0604 0.121"/>
   <path d="m118.23 3.4262v0.1814"/>
   <path d="m118.23 3.6076-0.0604 0.121"/>
   <path d="m118.17 3.7286-0.0605 0.0604"/>
   <path d="m118.11 3.789-0.121 0.0605"/>
   <path d="m117.99 3.8495h-0.4838"/>
   <path d="m118.71 4.3938 0.1814 0.0605"/>
   <path d="m118.9 4.4543h0.3024"/>
   <path d="m119.2 4.4543 0.1209-0.0605"/>
   <path d="m119.32 4.3938 0.0605-0.0605"/>
   <path d="m119.38 4.3333 0.0605-0.1209"/>
   <path d="m119.44 4.2124v-0.121"/>
   <path d="m119.44 4.0914-0.0605-0.1209"/>
   <path d="m119.38 3.9705-0.0605-0.0605"/>
   <path d="m119.32 3.91-0.1209-0.0605"/>
   <path d="m119.2 3.8495-0.2419-0.0605"/>
   <path d="m118.96 3.789-0.121-0.0604"/>
   <path d="m118.84 3.7286-0.0605-0.0605"/>
   <path d="m118.78 3.6681-0.0604-0.121"/>
   <path d="m118.71 3.5471v-0.1209"/>
   <path d="m118.71 3.4262 0.0604-0.121"/>
   <path d="m118.78 3.3052 0.0605-0.0604"/>
   <path d="m118.84 3.2448 0.121-0.0605"/>
   <path d="m118.96 3.1843h0.3023"/>
   <path d="m119.26 3.1843 0.1815 0.0605"/>
   <path d="m119.8 3.1843h0.7257"/>
   <path d="m120.17 4.4543v-1.27"/>
   <path d="m117.33 2.7368h3.1931"/>
  </g>
  <path d="m77.47 31.75h7.62"/>
  <path d="m54.61 31.75h7.62"/>
  <path d="m85.09 31.75v6.35"/>
  <path d="m54.61 22.86h7.62"/>
  <path d="m62.23 31.75v2.54"/>
  <path d="m39.37 52.07h22.86"/>
  <path d="m62.23 49.53v2.54"/>
  <path d="m62.23 17.78v5.08"/>
  <path d="m110.49 5.08h10.16"/>
  <path d="m110.49 5.08v7.62"/>
  <path d="m110.49 20.32v6.35"/>
  <path d="m85.09 22.86v8.89"/>
  <path d="m77.47 22.86h7.62"/>
  <path d="m85.09 31.75h12.7"/>
  <path d="m97.79 38.1v-6.35"/>
  <path d="m97.79 31.75h5.08"/>
  <path d="m39.37 31.75v6.35"/>
  <path d="m110.49 36.83v15.24"/>
  <path d="m97.79 45.72v6.35"/>
  <path d="m97.79 52.07h12.7"/>
  <path d="m110.49 52.07h10.16"/>
  <path d="m62.23 10.16v-5.08"/>
  <path d="m62.23 5.08h-10.16"/>
  <path d="m85.09 45.72v6.35"/>
  <path d="m85.09 52.07h12.7"/>
  <path d="m62.23 52.07h22.86"/>
  <path d="m26.67 31.75h12.7"/>
  <path d="m26.67 38.1v-6.35"/>
  <path d="m39.37 31.75v-8.89"/>
  <path d="m21.59 31.75h5.08"/>
  <path d="m3.81 52.07h10.16"/>
  <path d="m13.97 52.07h12.7"/>
  <path d="m13.97 36.83v15.24"/>
  <path d="m39.37 22.86h7.62"/>
  <path d="m62.23 22.86h7.62"/>
  <path d="m13.97 5.08h-10.16"/>
  <path d="m13.97 5.08v7.62"/>
  <path d="m39.37 31.75h7.62"/>
  <path d="m13.97 20.32v6.35"/>
  <path d="m62.23 31.75v-8.89"/>
  <path d="m26.67 45.72v6.35"/>
  <path d="m26.67 52.07h12.7"/>
  <path d="m39.37 45.72v6.35"/>
  <path d="m62.23 31.75h7.62"/>
  <text x="66.0812" y="37.4650" font-size="1.6933" opacity="0" text-anchor="middle" lengthAdjust="spacingAndGlyphs" textLength="2.6065">D2</text>
  <g class="stroked-text">
   <path d="m65.144 37.297v-1.27"/>
   <path d="m65.144 36.027h0.3024"/>
   <path d="m65.446 36.027 0.1814 0.0605"/>
   <path d="m65.628 36.087 0.121 0.1209"/>
   <path d="m65.749 36.208 0.0605 0.121"/>
   <path d="m65.809 36.329 0.0604 0.2419"/>
   <path d="m65.87 36.571v0.1814"/>
   <path d="m65.87 36.752-0.0604 0.2419"/>
   <path d="m65.809 36.994-0.0605 0.1209"/>
   <path d="m65.749 37.115-0.121 0.121"/>
   <path d="m65.628 37.236-0.1814 0.0605"/>
   <path d="m65.446 37.297h-0.3024"/>
   <path d="m66.353 36.148 0.0604-0.0604"/>
   <path d="m66.414 36.087 0.121-0.0605"/>
   <path d="m66.535 36.027h0.3024"/>
   <path d="m66.837 36.027 0.1209 0.0605"/>
   <path d="m66.958 36.087 0.0605 0.0604"/>
   <path d="m67.019 36.148 0.0605 0.121"/>
   <path d="m67.079 36.268v0.1209"/>
   <path d="m67.079 36.389-0.0605 0.1815"/>
   <path d="m67.019 36.571-0.7257 0.7257"/>
   <path d="m66.293 37.297h0.7862"/>
  </g>
  <text x="70.8890" y="40.0050" font-size="1.6933" opacity="0" text-anchor="middle" lengthAdjust="spacingAndGlyphs" textLength="12.2221">BZX384C5V1</text>
  <g class="stroked-text">
   <path d="m65.567 39.171 0.1814 0.0605"/>
   <path d="m65.749 39.232 0.0605 0.0605"/>
   <path d="m65.809 39.292 0.0604 0.1209"/>
   <path d="m65.87 39.413v0.1815"/>
   <path d="m65.87 39.595-0.0604 0.1209"/>
   <path d="m65.809 39.716-0.0605 0.0605"/>
   <path d="m65.749 39.776-0.121 0.0605"/>
   <path d="m65.628 39.837h-0.4838"/>
   <path d="m65.144 39.837v-1.27"/>
   <path d="m65.144 38.567h0.4234"/>
   <path d="m65.567 38.567 0.1209 0.0605"/>
   <path d="m65.688 38.627 0.0605 0.0604"/>
   <path d="m65.749 38.688 0.0605 0.121"/>
   <path d="m65.809 38.808v0.1209"/>
   <path d="m65.809 38.929-0.0605 0.121"/>
   <path d="m65.749 39.05-0.0605 0.0605"/>
   <path d="m65.688 39.111-0.1209 0.0604"/>
   <path d="m65.567 39.171h-0.4234"/>
   <path d="m66.293 38.567h0.8466"/>
   <path d="m67.14 38.567-0.8466 1.27"/>
   <path d="m66.293 39.837h0.8466"/>
   <path d="m67.502 38.567 0.8466 1.27"/>
   <path d="m68.349 38.567-0.8466 1.27"/>
   <path d="m68.712 38.567h0.7862"/>
   <path d="m69.498 38.567-0.4234 0.4838"/>
   <path d="m69.075 39.05h0.1815"/>
   <path d="m69.256 39.05 0.1209 0.0605"/>
   <path d="m69.377 39.111 0.0605 0.0604"/>
   <path d="m69.438 39.171 0.0605 0.121"/>
   <path d="m69.498 39.292v0.3024"/>
   <path d="m69.498 39.595-0.0605 0.1209"/>
   <path d="m69.438 39.716-0.0605 0.0605"/>
   <path d="m69.377 39.776-0.1209 0.0605"/>
   <path d="m69.256 39.837h-0.3629"/>
   <path d="m68.893 39.837-0.1209-0.0605"/>
   <path d="m68.772 39.776-0.0605-0.0605"/>
   <path d="m70.224 39.111-0.121-0.0605"/>
   <path d="m70.103 39.05-0.0605-0.0605"/>
   <path d="m70.042 38.99-0.0604-0.1209"/>
   <path d="m69.982 38.869v-0.0605"/>
   <path d="m69.982 38.808 0.0604-0.121"/>
   <path d="m70.042 38.688 0.0605-0.0604"/>
   <path d="m70.103 38.627 0.121-0.0605"/>
   <path d="m70.224 38.567h0.2419"/>
   <path d="m70.466 38.567 0.1209 0.0605"/>
   <path d="m70.587 38.627 0.0605 0.0604"/>
   <path d="m70.647 38.688 0.0605 0.121"/>
   <path d="m70.708 38.808v0.0605"/>
   <path d="m70.708 38.869-0.0605 0.1209"/>
   <path d="m70.647 38.99-0.0605 0.0605"/>
   <path d="m70.587 39.05-0.1209 0.0605"/>
   <path d="m70.466 39.111h-0.2419"/>
   <path d="m70.224 39.111-0.121 0.0604"/>
   <path d="m70.103 39.171-0.0605 0.0605"/>
   <path d="m70.042 39.232-0.0604 0.121"/>
   <path d="m69.982 39.353v0.2419"/>
   <path d="m69.982 39.595 0.0604 0.1209"/>
   <path d="m70.042 39.716 0.0605 0.0605"/>
   <path d="m70.103 39.776 0.121 0.0605"/>
   <path d="m70.224 39.837h0.2419"/>
   <path d="m70.466 39.837 0.1209-0.0605"/>
   <path d="m70.587 39.776 0.0605-0.0605"/>
   <path d="m70.647 39.716 0.0605-0.1209"/>
   <path d="m70.708 39.595v-0.2419"/>
   <path d="m70.708 39.353-0.0605-0.121"/>
   <path d="m70.647 39.232-0.0605-0.0605"/>
   <path d="m70.587 39.171-0.1209-0.0604"/>
   <path d="m71.796 38.99v0.8467"/>
   <path d="m71.494 38.506-0.3023 0.9071"/>
   <path d="m71.191 39.413h0.7861"/>
   <path d="m73.187 39.716-0.0604 0.0605"/>
   <path d="m73.127 39.776-0.1815 0.0605"/>
   <path d="m72.945 39.837h-0.1209"/>
   <path d="m72.824 39.837-0.1814-0.0605"/>
   <path d="m72.643 39.776-0.121-0.121"/>
   <path d="m72.522 39.655-0.0605-0.1209"/>
   <path d="m72.461 39.534-0.0604-0.2419"/>
   <path d="m72.401 39.292v-0.1814"/>
   <path d="m72.401 39.111 0.0604-0.2419"/>
   <path d="m72.461 38.869 0.0605-0.121"/>
   <path d="m72.522 38.748 0.121-0.1209"/>
   <path d="m72.643 38.627 0.1814-0.0605"/>
   <path d="m72.824 38.567h0.1209"/>
   <path d="m72.945 38.567 0.1815 0.0605"/>
   <path d="m73.127 38.627 0.0604 0.0604"/>
   <path d="m74.336 38.567h-0.6048"/>
   <path d="m73.731 38.567-0.0604 0.6047"/>
   <path d="m73.671 39.171 0.0604-0.0604"/>
   <path d="m73.731 39.111 0.121-0.0605"/>
   <path d="m73.852 39.05h0.3024"/>
   <path d="m74.155 39.05 0.1209 0.0605"/>
   <path d="m74.276 39.111 0.0605 0.0604"/>
   <path d="m74.336 39.171 0.0605 0.121"/>
   <path d="m74.397 39.292v0.3024"/>
   <path d="m74.397 39.595-0.0605 0.1209"/>
   <path d="m74.336 39.716-0.0605 0.0605"/>
   <path d="m74.276 39.776-0.1209 0.0605"/>
   <path d="m74.155 39.837h-0.3024"/>
   <path d="m73.852 39.837-0.121-0.0605"/>
   <path d="m73.731 39.776-0.0604-0.0605"/>
   <path d="m74.759 38.567 0.4233 1.27"/>
   <path d="m75.183 39.837 0.4234-1.27"/>
   <path d="m76.695 39.837h-0.7257"/>
   <path d="m76.332 39.837v-1.27"/>
   <path d="m76.332 38.567-0.1209 0.1814"/>
   <path d="m76.211 38.748-0.121 0.121"/>
   <path d="m76.09 38.869-0.1209 0.0604"/>
  </g>
  <path d="m62.23 36.83v-2.54"/>
  <path d="m62.23 39.37v2.54"/>
  <text x="66.0812" y="45.0850" font-size="1.6933" opacity="0" text-anchor="middle" lengthAdjust="spacingAndGlyphs" textLength="2.6065">D3</text>
  <g class="stroked-text">
   <path d="m65.144 44.917v-1.27"/>
   <path d="m65.144 43.647h0.3024"/>
   <path d="m65.446 43.647 0.1814 0.0605"/>
   <path d="m65.628 43.707 0.121 0.1209"/>
   <path d="m65.749 43.828 0.0605 0.121"/>
   <path d="m65.809 43.949 0.0604 0.2419"/>
   <path d="m65.87 44.191v0.1814"/>
   <path d="m65.87 44.372-0.0604 0.2419"/>
   <path d="m65.809 44.614-0.0605 0.1209"/>
   <path d="m65.749 44.735-0.121 0.121"/>
   <path d="m65.628 44.856-0.1814 0.0605"/>
   <path d="m65.446 44.917h-0.3024"/>
   <path d="m66.293 43.647h0.7862"/>
   <path d="m67.079 43.647-0.4234 0.4838"/>
   <path d="m66.656 44.13h0.1815"/>
   <path d="m66.837 44.13 0.1209 0.0605"/>
   <path d="m66.958 44.191 0.0605 0.0604"/>
   <path d="m67.019 44.251 0.0605 0.121"/>
   <path d="m67.079 44.372v0.3024"/>
   <path d="m67.079 44.675-0.0605 0.1209"/>
   <path d="m67.019 44.796-0.0605 0.0605"/>
   <path d="m66.958 44.856-0.1209 0.0605"/>
   <path d="m66.837 44.917h-0.3629"/>
   <path d="m66.474 44.917-0.1209-0.0605"/>
   <path d="m66.353 44.856-0.0605-0.0605"/>
  </g>
  <text x="70.8890" y="47.6250" font-size="1.6933" opacity="0" text-anchor="middle" lengthAdjust="spacingAndGlyphs" textLength="12.2221">BZX384C5V1</text>
  <g class="stroked-text">
   <path d="m65.567 46.791 0.1814 0.0605"/>
   <path d="m65.749 46.852 0.0605 0.0605"/>
   <path d="m65.809 46.912 0.0604 0.1209"/>
   <path d="m65.87 47.033v0.1815"/>
   <path d="m65.87 47.215-0.0604 0.1209"/>
   <path d="m65.809 47.336-0.0605 0.0605"/>
   <path d="m65.749 47.396-0.121 0.0605"/>
   <path d="m65.628 47.457h-0.4838"/>
   <path d="m65.144 47.457v-1.27"/>
   <path d="m65.144 46.187h0.4234"/>
   <path d="m65.567 46.187 0.1209 0.0605"/>
   <path d="m65.688 46.247 0.0605 0.0604"/>
   <path d="m65.749 46.308 0.0605 0.121"/>
   <path d="m65.809 46.428v0.1209"/>
   <path d="m65.809 46.549-0.0605 0.121"/>
   <path d="m65.749 46.67-0.0605 0.0605"/>
   <path d="m65.688 46.731-0.1209 0.0604"/>
   <path d="m65.567 46.791h-0.4234"/>
   <path d="m66.293 46.187h0.8466"/>
   <path d="m67.14 46.187-0.8466 1.27"/>
   <path d="m66.293 47.457h0.8466"/>
   <path d="m67.502 46.187 0.8466 1.27"/>
   <path d="m68.349 46.187-0.8466 1.27"/>
   <path d="m68.712 46.187h0.7862"/>
   <path d="m69.498 46.187-0.4234 0.4838"/>
   <path d="m69.075 46.67h0.1815"/>
   <path d="m69.256 46.67 0.1209 0.0605"/>
   <path d="m69.377 46.731 0.0605 0.0604"/>
   <path d="m69.438 46.791 0.0605 0.121"/>
   <path d="m69.498 46.912v0.3024"/>
   <path d="m69.498 47.215-0.0605 0.1209"/>
   <path d="m69.438 47.336-0.0605 0.0605"/>
   <path d="m69.377 47.396-0.1209 0.0605"/>
   <path d="m69.256 47.457h-0.3629"/>
   <path d="m68.893 47.457-0.1209-0.0605"/>
   <path d="m68.772 47.396-0.0605-0.0605"/>
   <path d="m70.224 46.731-0.121-0.0605"/>
   <path d="m70.103 46.67-0.0605-0.0605"/>
   <path d="m70.042 46.61-0.0604-0.1209"/>
   <path d="m69.982 46.489v-0.0605"/>
   <path d="m69.982 46.428 0.0604-0.121"/>
   <path d="m70.042 46.308 0.0605-0.0604"/>
   <path d="m70.103 46.247 0.121-0.0605"/>
   <path d="m70.224 46.187h0.2419"/>
   <path d="m70.466 46.187 0.1209 0.0605"/>
   <path d="m70.587 46.247 0.0605 0.0604"/>
   <path d="m70.647 46.308 0.0605 0.121"/>
   <path d="m70.708 46.428v0.0605"/>
   <path d="m70.708 46.489-0.0605 0.1209"/>
   <path d="m70.647 46.61-0.0605 0.0605"/>
   <path d="m70.587 46.67-0.1209 0.0605"/>
   <path d="m70.466 46.731h-0.2419"/>
   <path d="m70.224 46.731-0.121 0.0604"/>
   <path d="m70.103 46.791-0.0605 0.0605"/>
   <path d="m70.042 46.852-0.0604 0.121"/>
   <path d="m69.982 46.973v0.2419"/>
   <path d="m69.982 47.215 0.0604 0.1209"/>
   <path d="m70.042 47.336 0.0605 0.0605"/>
   <path d="m70.103 47.396 0.121 0.0605"/>
   <path d="m70.224 47.457h0.2419"/>
   <path d="m70.466 47.457 0.1209-0.0605"/>
   <path d="m70.587 47.396 0.0605-0.0605"/>
   <path d="m70.647 47.336 0.0605-0.1209"/>
   <path d="m70.708 47.215v-0.2419"/>
   <path d="m70.708 46.973-0.0605-0.121"/>
   <path d="m70.647 46.852-0.0605-0.0605"/>
   <path d="m70.587 46.791-0.1209-0.0604"/>
   <path d="m71.796 46.61v0.8467"/>
   <path d="m71.494 46.126-0.3023 0.9071"/>
   <path d="m71.191 47.033h0.7861"/>
   <path d="m73.187 47.336-0.0604 0.0605"/>
   <path d="m73.127 47.396-0.1815 0.0605"/>
   <path d="m72.945 47.457h-0.1209"/>
   <path d="m72.824 47.457-0.1814-0.0605"/>
   <path d="m72.643 47.396-0.121-0.121"/>
   <path d="m72.522 47.275-0.0605-0.1209"/>
   <path d="m72.461 47.154-0.0604-0.2419"/>
   <path d="m72.401 46.912v-0.1814"/>
   <path d="m72.401 46.731 0.0604-0.2419"/>
   <path d="m72.461 46.489 0.0605-0.121"/>
   <path d="m72.522 46.368 0.121-0.1209"/>
   <path d="m72.643 46.247 0.1814-0.0605"/>
   <path d="m72.824 46.187h0.1209"/>
   <path d="m72.945 46.187 0.1815 0.0605"/>
   <path d="m73.127 46.247 0.0604 0.0604"/>
   <path d="m74.336 46.187h-0.6048"/>
   <path d="m73.731 46.187-0.0604 0.6047"/>
   <path d="m73.671 46.791 0.0604-0.0604"/>
   <path d="m73.731 46.731 0.121-0.0605"/>
   <path d="m73.852 46.67h0.3024"/>
   <path d="m74.155 46.67 0.1209 0.0605"/>
   <path d="m74.276 46.731 0.0605 0.0604"/>
   <path d="m74.336 46.791 0.0605 0.121"/>
   <path d="m74.397 46.912v0.3024"/>
   <path d="m74.397 47.215-0.0605 0.1209"/>
   <path d="m74.336 47.336-0.0605 0.0605"/>
   <path d="m74.276 47.396-0.1209 0.0605"/>
   <path d="m74.155 47.457h-0.3024"/>
   <path d="m73.852 47.457-0.121-0.0605"/>
   <path d="m73.731 47.396-0.0604-0.0605"/>
   <path d="m74.759 46.187 0.4233 1.27"/>
   <path d="m75.183 47.457 0.4234-1.27"/>
   <path d="m76.695 47.457h-0.7257"/>
   <path d="m76.332 47.457v-1.27"/>
   <path d="m76.332 46.187-0.1209 0.1814"/>
   <path d="m76.211 46.368-0.121 0.121"/>
   <path d="m76.09 46.489-0.1209 0.0604"/>
  </g>
  <path d="m62.23 46.99v2.54"/>
  <path d="m62.23 44.45v-2.54"/>
 </g>
 <g stroke="#000" stroke-linecap="round" stroke-linejoin="round" stroke-width=".1524">
  <circle cx="62.23" cy="31.75" r=".4572"/>
  <circle cx="62.23" cy="22.86" r=".4572"/>
  <circle cx="62.23" cy="52.07" r=".4572"/>
  <circle cx="97.79" cy="31.75" r=".4572"/>
  <circle cx="85.09" cy="31.75" r=".4572"/>
  <circle cx="110.49" cy="52.07" r=".4572"/>
  <circle cx="85.09" cy="52.07" r=".4572"/>
  <circle cx="97.79" cy="52.07" r=".4572"/>
  <circle cx="39.37" cy="31.75" r=".4572"/>
  <circle cx="26.67" cy="31.75" r=".4572"/>
  <circle cx="13.97" cy="52.07" r=".4572"/>
  <circle cx="26.67" cy="52.07" r=".4572"/>
  <circle cx="39.37" cy="52.07" r=".4572"/>
 </g>
</svg>
